<svg width="16" height="16" viewBox="0 0 16 16" fill="none" xmlns="http://www.w3.org/2000/svg">
<path d="M7.98286 3.60673L7.97195 0.61021C7.97195 0.514197 7.85924 0.464819 7.78833 0.528827L1.27074 6.46242C1.24801 6.48345 1.23438 6.51272 1.23438 6.54472V12.1729C1.23438 12.2342 1.28346 12.2835 1.34437 12.2835H7.90105C7.96195 12.2835 8.01104 12.3329 8.01104 12.3933L8.02195 15.3898C8.02195 15.4858 8.13467 15.5352 8.20557 15.4712L14.7241 9.53758C14.7468 9.51655 14.7604 9.48729 14.7604 9.45528V3.8271C14.7604 3.76583 14.7113 3.71645 14.6504 3.71645H8.09376C8.03286 3.71645 7.98377 3.66708 7.98377 3.60673H7.98286ZM8.00831 11.0381L8.00195 9.17273C8.00195 9.11146 7.95286 9.063 7.89196 9.063H3.72779C3.62871 9.063 3.58053 8.94138 3.65143 8.8728L7.79924 4.88233C7.86923 4.81557 7.98468 4.86495 7.98468 4.96188L7.99104 6.82727C7.99104 6.88854 8.04013 6.937 8.10103 6.937H12.2652C12.3643 6.937 12.4125 7.05862 12.3416 7.1272L8.19375 11.1177C8.12376 11.1844 8.00831 11.135 8.00831 11.0381Z" fill="#0C315A"/>
</svg>
