<svg width="500" height="500" viewBox="0 0 500 500" fill="none" xmlns="http://www.w3.org/2000/svg">
<g clip-path="url(#clip0_295_46885)">
<rect width="500" height="500" fill="#EEEFFF"/>
<path d="M-212.9 286.811L267.737 -193.902" stroke="#4353FF"/>
<path d="M-164.775 331.55L315.862 -149.162" stroke="#4353FF"/>
<path d="M-116.648 376.278L363.988 -104.436" stroke="#4353FF"/>
<path d="M-68.5234 421.005L412.112 -59.707" stroke="#4353FF"/>
<path d="M-20.4023 465.738L460.235 -14.9727" stroke="#4353FF"/>
<path d="M27.7227 510.475L508.359 29.7617" stroke="#4353FF"/>
<path d="M75.8438 555.2L556.48 74.4883" stroke="#4353FF"/>
<path d="M123.975 599.936L604.611 119.223" stroke="#4353FF"/>
<path d="M172.096 644.663L652.732 163.951" stroke="#4353FF"/>
<path d="M220.223 689.396L700.859 208.684" stroke="#4353FF"/>
<path d="M268.348 734.132L748.984 253.42" stroke="#4353FF"/>
<path d="M316.469 778.858L797.105 298.146" stroke="#4353FF"/>
<path d="M364.594 823.589L845.23 342.877" stroke="#4353FF"/>
<path d="M412.713 868.327L893.349 387.615" stroke="#4353FF"/>
<path d="M460.846 913.054L941.482 432.342" stroke="#4353FF"/>
<path d="M-188.834 309.178L291.803 -171.533" stroke="#4353FF"/>
<path d="M-140.715 353.914L339.922 -126.799" stroke="#4353FF"/>
<path d="M-92.5898 398.641L388.046 -82.0703" stroke="#4353FF"/>
<path d="M-44.4629 443.377L436.172 -37.3359" stroke="#4353FF"/>
<path d="M3.66406 488.103L484.301 7.39062" stroke="#4353FF"/>
<path d="M51.7832 532.836L532.419 52.125" stroke="#4353FF"/>
<path d="M99.9102 577.572L580.546 96.8594" stroke="#4353FF"/>
<path d="M148.037 622.298L628.673 141.586" stroke="#4353FF"/>
<path d="M196.156 667.028L676.792 186.316" stroke="#4353FF"/>
<path d="M244.281 711.767L724.917 231.055" stroke="#4353FF"/>
<path d="M292.406 756.497L773.042 275.781" stroke="#4353FF"/>
<path d="M340.535 801.224L821.171 320.512" stroke="#4353FF"/>
<path d="M388.654 845.956L869.29 365.244" stroke="#4353FF"/>
<path d="M436.779 890.693L917.415 409.98" stroke="#4353FF"/>
<path d="M484.904 935.419L965.544 454.707" stroke="#4353FF"/>
</g>
<defs>
<clipPath id="clip0_295_46885">
<rect width="500" height="500" fill="white"/>
</clipPath>
</defs>
</svg>
