<svg width="1920" height="287" viewBox="0 0 1920 287" fill="none" xmlns="http://www.w3.org/2000/svg">
<g clip-path="url(#clip0_295_46704)">
<rect width="1920" height="287" fill="#EEEFFF"/>
<line x1="989.693" y1="286.818" x2="1319.69" y2="-43.1817" stroke="#4353FF" stroke-width="0.514019"/>
<line x1="177.756" y1="286.818" x2="507.756" y2="-43.1817" stroke="#4353FF" stroke-width="0.514019"/>
<line x1="1801.63" y1="286.818" x2="2131.63" y2="-43.1817" stroke="#4353FF" stroke-width="0.514019"/>
<line x1="1034.8" y1="286.818" x2="1364.8" y2="-43.1817" stroke="#4353FF" stroke-width="0.514019"/>
<line x1="222.863" y1="286.818" x2="552.863" y2="-43.1817" stroke="#4353FF" stroke-width="0.514019"/>
<line x1="1846.74" y1="286.818" x2="2176.74" y2="-43.1817" stroke="#4353FF" stroke-width="0.514019"/>
<line x1="1079.91" y1="286.818" x2="1409.91" y2="-43.1817" stroke="#4353FF" stroke-width="0.514019"/>
<line x1="267.971" y1="286.818" x2="597.971" y2="-43.1817" stroke="#4353FF" stroke-width="0.514019"/>
<line x1="1891.85" y1="286.818" x2="2221.85" y2="-43.1817" stroke="#4353FF" stroke-width="0.514019"/>
<line x1="1125.02" y1="286.818" x2="1455.02" y2="-43.1817" stroke="#4353FF" stroke-width="0.514019"/>
<line x1="313.078" y1="286.818" x2="643.078" y2="-43.1817" stroke="#4353FF" stroke-width="0.514019"/>
<line x1="1170.12" y1="286.818" x2="1500.12" y2="-43.1817" stroke="#4353FF" stroke-width="0.514019"/>
<line x1="358.185" y1="286.818" x2="688.185" y2="-43.1817" stroke="#4353FF" stroke-width="0.514019"/>
<line x1="1215.23" y1="286.818" x2="1545.23" y2="-43.1817" stroke="#4353FF" stroke-width="0.514019"/>
<line x1="403.295" y1="286.818" x2="733.295" y2="-43.1817" stroke="#4353FF" stroke-width="0.514019"/>
<line x1="1260.34" y1="286.818" x2="1590.34" y2="-43.1817" stroke="#4353FF" stroke-width="0.514019"/>
<line x1="448.402" y1="286.818" x2="778.402" y2="-43.1817" stroke="#4353FF" stroke-width="0.514019"/>
<line x1="-318.43" y1="286.818" x2="11.5702" y2="-43.1817" stroke="#4353FF" stroke-width="0.514019"/>
<line x1="1305.45" y1="286.818" x2="1635.45" y2="-43.1817" stroke="#4353FF" stroke-width="0.514019"/>
<line x1="493.51" y1="286.818" x2="823.51" y2="-43.1817" stroke="#4353FF" stroke-width="0.514019"/>
<line x1="-273.32" y1="286.818" x2="56.6796" y2="-43.1817" stroke="#4353FF" stroke-width="0.514019"/>
<line x1="1350.55" y1="286.818" x2="1680.55" y2="-43.1817" stroke="#4353FF" stroke-width="0.514019"/>
<line x1="538.615" y1="286.818" x2="868.615" y2="-43.1817" stroke="#4353FF" stroke-width="0.514019"/>
<line x1="-228.213" y1="286.818" x2="101.787" y2="-43.1817" stroke="#4353FF" stroke-width="0.514019"/>
<line x1="1395.66" y1="286.818" x2="1725.66" y2="-43.1817" stroke="#4353FF" stroke-width="0.514019"/>
<line x1="583.725" y1="286.818" x2="913.725" y2="-43.1817" stroke="#4353FF" stroke-width="0.514019"/>
<line x1="-183.106" y1="286.818" x2="146.894" y2="-43.1817" stroke="#4353FF" stroke-width="0.514019"/>
<line x1="1440.77" y1="286.818" x2="1770.77" y2="-43.1817" stroke="#4353FF" stroke-width="0.514019"/>
<line x1="628.832" y1="286.818" x2="958.832" y2="-43.1817" stroke="#4353FF" stroke-width="0.514019"/>
<line x1="-137.998" y1="286.818" x2="192.002" y2="-43.1817" stroke="#4353FF" stroke-width="0.514019"/>
<line x1="1485.88" y1="286.818" x2="1815.88" y2="-43.1817" stroke="#4353FF" stroke-width="0.514019"/>
<line x1="673.939" y1="286.818" x2="1003.94" y2="-43.1817" stroke="#4353FF" stroke-width="0.514019"/>
<line x1="-92.8888" y1="286.818" x2="237.111" y2="-43.1817" stroke="#4353FF" stroke-width="0.514019"/>
<line x1="1530.99" y1="286.818" x2="1860.99" y2="-43.1817" stroke="#4353FF" stroke-width="0.514019"/>
<line x1="719.047" y1="286.818" x2="1049.05" y2="-43.1817" stroke="#4353FF" stroke-width="0.514019"/>
<line x1="-47.7833" y1="286.818" x2="282.217" y2="-43.1817" stroke="#4353FF" stroke-width="0.514019"/>
<line x1="1576.09" y1="286.818" x2="1906.09" y2="-43.1817" stroke="#4353FF" stroke-width="0.514019"/>
<line x1="764.154" y1="286.818" x2="1094.15" y2="-43.1817" stroke="#4353FF" stroke-width="0.514019"/>
<line x1="-2.67587" y1="286.818" x2="327.324" y2="-43.1817" stroke="#4353FF" stroke-width="0.514019"/>
<line x1="1621.2" y1="286.818" x2="1951.2" y2="-43.1817" stroke="#4353FF" stroke-width="0.514019"/>
<line x1="809.262" y1="286.818" x2="1139.26" y2="-43.1817" stroke="#4353FF" stroke-width="0.514019"/>
<line x1="42.4315" y1="286.818" x2="372.432" y2="-43.1817" stroke="#4353FF" stroke-width="0.514019"/>
<line x1="1666.31" y1="286.818" x2="1996.31" y2="-43.1817" stroke="#4353FF" stroke-width="0.514019"/>
<line x1="854.369" y1="286.818" x2="1184.37" y2="-43.1817" stroke="#4353FF" stroke-width="0.514019"/>
<line x1="87.5409" y1="286.818" x2="417.541" y2="-43.1817" stroke="#4353FF" stroke-width="0.514019"/>
<line x1="1711.41" y1="286.818" x2="2041.41" y2="-43.1817" stroke="#4353FF" stroke-width="0.514019"/>
<line x1="899.476" y1="286.818" x2="1229.48" y2="-43.1817" stroke="#4353FF" stroke-width="0.514019"/>
<line x1="132.648" y1="286.818" x2="462.648" y2="-43.1817" stroke="#4353FF" stroke-width="0.514019"/>
<line x1="1756.52" y1="286.818" x2="2086.52" y2="-43.1817" stroke="#4353FF" stroke-width="0.514019"/>
<line x1="944.584" y1="286.818" x2="1274.58" y2="-43.1817" stroke="#4353FF" stroke-width="0.514019"/>
<line x1="1012.25" y1="286.818" x2="1342.25" y2="-43.1817" stroke="#4353FF" stroke-width="0.514019"/>
<line x1="200.309" y1="286.818" x2="530.309" y2="-43.1817" stroke="#4353FF" stroke-width="0.514019"/>
<line x1="1824.18" y1="286.818" x2="2154.18" y2="-43.1817" stroke="#4353FF" stroke-width="0.514019"/>
<line x1="1057.35" y1="286.818" x2="1387.35" y2="-43.1817" stroke="#4353FF" stroke-width="0.514019"/>
<line x1="245.418" y1="286.818" x2="575.418" y2="-43.1817" stroke="#4353FF" stroke-width="0.514019"/>
<line x1="1869.29" y1="286.818" x2="2199.29" y2="-43.1817" stroke="#4353FF" stroke-width="0.514019"/>
<line x1="1102.46" y1="286.818" x2="1432.46" y2="-43.1817" stroke="#4353FF" stroke-width="0.514019"/>
<line x1="290.525" y1="286.818" x2="620.525" y2="-43.1817" stroke="#4353FF" stroke-width="0.514019"/>
<line x1="1914.4" y1="286.818" x2="2244.4" y2="-43.1817" stroke="#4353FF" stroke-width="0.514019"/>
<line x1="1147.57" y1="286.818" x2="1477.57" y2="-43.1817" stroke="#4353FF" stroke-width="0.514019"/>
<line x1="335.633" y1="286.818" x2="665.633" y2="-43.1817" stroke="#4353FF" stroke-width="0.514019"/>
<line x1="1192.68" y1="286.818" x2="1522.68" y2="-43.1817" stroke="#4353FF" stroke-width="0.514019"/>
<line x1="380.74" y1="286.818" x2="710.74" y2="-43.1817" stroke="#4353FF" stroke-width="0.514019"/>
<line x1="1237.79" y1="286.818" x2="1567.79" y2="-43.1817" stroke="#4353FF" stroke-width="0.514019"/>
<line x1="425.848" y1="286.818" x2="755.848" y2="-43.1817" stroke="#4353FF" stroke-width="0.514019"/>
<line x1="1282.89" y1="286.818" x2="1612.89" y2="-43.1817" stroke="#4353FF" stroke-width="0.514019"/>
<line x1="470.955" y1="286.818" x2="800.955" y2="-43.1817" stroke="#4353FF" stroke-width="0.514019"/>
<line x1="-295.873" y1="286.818" x2="34.1269" y2="-43.1817" stroke="#4353FF" stroke-width="0.514019"/>
<line x1="1328" y1="286.818" x2="1658" y2="-43.1817" stroke="#4353FF" stroke-width="0.514019"/>
<line x1="516.062" y1="286.818" x2="846.062" y2="-43.1817" stroke="#4353FF" stroke-width="0.514019"/>
<line x1="-250.766" y1="286.818" x2="79.2343" y2="-43.1817" stroke="#4353FF" stroke-width="0.514019"/>
<line x1="1373.11" y1="286.818" x2="1703.11" y2="-43.1817" stroke="#4353FF" stroke-width="0.514019"/>
<line x1="561.172" y1="286.818" x2="891.172" y2="-43.1817" stroke="#4353FF" stroke-width="0.514019"/>
<line x1="-205.658" y1="286.818" x2="124.342" y2="-43.1817" stroke="#4353FF" stroke-width="0.514019"/>
<line x1="1418.22" y1="286.818" x2="1748.22" y2="-43.1817" stroke="#4353FF" stroke-width="0.514019"/>
<line x1="606.279" y1="286.818" x2="936.279" y2="-43.1817" stroke="#4353FF" stroke-width="0.514019"/>
<line x1="-160.553" y1="286.818" x2="169.447" y2="-43.1817" stroke="#4353FF" stroke-width="0.514019"/>
<line x1="1463.32" y1="286.818" x2="1793.32" y2="-43.1817" stroke="#4353FF" stroke-width="0.514019"/>
<line x1="651.387" y1="286.818" x2="981.387" y2="-43.1817" stroke="#4353FF" stroke-width="0.514019"/>
<line x1="-115.443" y1="286.818" x2="214.557" y2="-43.1817" stroke="#4353FF" stroke-width="0.514019"/>
<line x1="1508.43" y1="286.818" x2="1838.43" y2="-43.1817" stroke="#4353FF" stroke-width="0.514019"/>
<line x1="696.492" y1="286.818" x2="1026.49" y2="-43.1817" stroke="#4353FF" stroke-width="0.514019"/>
<line x1="-70.336" y1="286.818" x2="259.664" y2="-43.1817" stroke="#4353FF" stroke-width="0.514019"/>
<line x1="1553.54" y1="286.818" x2="1883.54" y2="-43.1817" stroke="#4353FF" stroke-width="0.514019"/>
<line x1="741.601" y1="286.818" x2="1071.6" y2="-43.1817" stroke="#4353FF" stroke-width="0.514019"/>
<line x1="-25.2286" y1="286.818" x2="304.771" y2="-43.1817" stroke="#4353FF" stroke-width="0.514019"/>
<line x1="1598.65" y1="286.818" x2="1928.65" y2="-43.1817" stroke="#4353FF" stroke-width="0.514019"/>
<line x1="786.709" y1="286.818" x2="1116.71" y2="-43.1817" stroke="#4353FF" stroke-width="0.514019"/>
<line x1="19.8788" y1="286.818" x2="349.879" y2="-43.1817" stroke="#4353FF" stroke-width="0.514019"/>
<line x1="1643.75" y1="286.818" x2="1973.75" y2="-43.1817" stroke="#4353FF" stroke-width="0.514019"/>
<line x1="831.818" y1="286.818" x2="1161.82" y2="-43.1817" stroke="#4353FF" stroke-width="0.514019"/>
<line x1="64.9862" y1="286.818" x2="394.986" y2="-43.1817" stroke="#4353FF" stroke-width="0.514019"/>
<line x1="1688.86" y1="286.818" x2="2018.86" y2="-43.1817" stroke="#4353FF" stroke-width="0.514019"/>
<line x1="876.924" y1="286.818" x2="1206.92" y2="-43.1817" stroke="#4353FF" stroke-width="0.514019"/>
<line x1="110.094" y1="286.818" x2="440.094" y2="-43.1817" stroke="#4353FF" stroke-width="0.514019"/>
<line x1="1733.97" y1="286.818" x2="2063.97" y2="-43.1817" stroke="#4353FF" stroke-width="0.514019"/>
<line x1="922.033" y1="286.818" x2="1252.03" y2="-43.1817" stroke="#4353FF" stroke-width="0.514019"/>
<line x1="155.201" y1="286.818" x2="485.201" y2="-43.1817" stroke="#4353FF" stroke-width="0.514019"/>
<line x1="1779.08" y1="286.818" x2="2109.08" y2="-43.1817" stroke="#4353FF" stroke-width="0.514019"/>
<line x1="967.139" y1="286.818" x2="1297.14" y2="-43.1817" stroke="#4353FF" stroke-width="0.514019"/>
</g>
<defs>
<clipPath id="clip0_295_46704">
<rect width="1920" height="287" fill="white"/>
</clipPath>
</defs>
</svg>
