<svg width="16" height="16" viewBox="0 0 16 16" fill="none" xmlns="http://www.w3.org/2000/svg">
<g clip-path="url(#clip0_18569_64887)">
<path d="M9.23407 6.15615H6.7756C5.75624 6.15615 4.92676 5.32667 4.92676 4.3073V1.84884C4.92676 0.82948 5.75624 0 6.7756 0H9.23407C10.2534 0 11.0829 0.82948 11.0829 1.84884V4.3073C11.0829 5.32667 10.2534 6.15615 9.23407 6.15615ZM6.76561 1.23922C6.42582 1.23922 6.146 1.51905 6.146 1.85884V4.3173C6.146 4.65709 6.42582 4.93692 6.76561 4.93692H9.22407C9.56386 4.93692 9.84369 4.65709 9.84369 4.3173V1.85884C9.84369 1.51905 9.56386 1.23922 9.22407 1.23922H6.76561Z" fill="#0C315A"/>
<path d="M8.61421 16.0002H7.38498C6.36561 16.0002 5.53613 15.1707 5.53613 14.1513V12.9221C5.53613 11.9027 6.36561 11.0732 7.38498 11.0732H8.61421C9.63357 11.0732 10.4631 11.9027 10.4631 12.9221V14.1513C10.4631 15.1707 9.63357 16.0002 8.61421 16.0002ZM7.38498 12.3125C7.04519 12.3125 6.76536 12.5923 6.76536 12.9321V14.1613C6.76536 14.5011 7.04519 14.7809 7.38498 14.7809H8.61421C8.95399 14.7809 9.23382 14.5011 9.23382 14.1613V12.9321C9.23382 12.5923 8.95399 12.3125 8.61421 12.3125H7.38498Z" fill="#0C315A"/>
<path d="M3.07808 16.0002H1.84885C0.829484 16.0002 0 15.1707 0 14.1513V12.9221C0 11.9027 0.829484 11.0732 1.84885 11.0732H3.07808C4.09744 11.0732 4.92692 11.9027 4.92692 12.9221V14.1513C4.92692 15.1707 4.09744 16.0002 3.07808 16.0002ZM1.84885 12.3125C1.50906 12.3125 1.22923 12.5923 1.22923 12.9321V14.1613C1.22923 14.5011 1.50906 14.7809 1.84885 14.7809H3.07808C3.41787 14.7809 3.69769 14.5011 3.69769 14.1613V12.9321C3.69769 12.5923 3.41787 12.3125 3.07808 12.3125H1.84885Z" fill="#0C315A"/>
<path d="M14.1513 16.0002H12.9221C11.9027 16.0002 11.0732 15.1707 11.0732 14.1513V12.9221C11.0732 11.9027 11.9027 11.0732 12.9221 11.0732H14.1513C15.1707 11.0732 16.0002 11.9027 16.0002 12.9221V14.1513C16.0002 15.1707 15.1707 16.0002 14.1513 16.0002ZM12.9221 12.3125C12.5823 12.3125 12.3025 12.5923 12.3025 12.9321V14.1613C12.3025 14.5011 12.5823 14.7809 12.9221 14.7809H14.1513C14.4911 14.7809 14.7709 14.5011 14.7709 14.1613V12.9321C14.7709 12.5923 14.4911 12.3125 14.1513 12.3125H12.9221Z" fill="#0C315A"/>
<path d="M8.00536 12.3121C7.66557 12.3121 7.38574 12.0323 7.38574 11.6925V5.54637C7.38574 5.20658 7.66557 4.92676 8.00536 4.92676C8.34515 4.92676 8.62497 5.20658 8.62497 5.54637V11.6925C8.62497 12.0323 8.34515 12.3121 8.00536 12.3121Z" fill="#0C315A"/>
<path d="M13.5318 12.3122C13.192 12.3122 12.9122 12.0323 12.9122 11.6926V9.84372H3.06832V11.073C3.06832 11.4127 2.7885 11.6926 2.44871 11.6926C2.10893 11.6926 1.8291 11.4127 1.8291 11.073V9.2241C1.8291 8.88431 2.10893 8.60449 2.44871 8.60449H13.5218C13.8616 8.60449 14.1414 8.88431 14.1414 9.2241V11.6826C14.1414 12.0224 13.8616 12.3022 13.5218 12.3022L13.5318 12.3122Z" fill="#0C315A"/>
</g>
<defs>
<clipPath id="clip0_18569_64887">
<rect width="16" height="16" fill="white"/>
</clipPath>
</defs>
</svg>
