<svg width="16" height="16" viewBox="0 0 16 16" fill="none" xmlns="http://www.w3.org/2000/svg">
<g clip-path="url(#clip0_18598_61326)">
<path d="M11.6903 15.8009H4.25496C3.94515 15.8009 3.69531 15.5511 3.69531 15.2413C3.69531 14.9315 3.94515 14.6816 4.25496 14.6816H11.6903C12.0001 14.6816 12.25 14.9315 12.25 15.2413C12.25 15.5511 12.0001 15.8009 11.6903 15.8009Z" fill="#0C315A"/>
<path d="M10.9513 15.8003H5.00496C4.69515 15.8003 4.44531 15.5505 4.44531 15.2407C4.44531 15.1907 4.44527 15.1507 4.46526 15.1108L4.92499 13.2619C5.15485 12.3525 5.97433 11.7129 6.91374 11.7129H9.05242C9.99183 11.7129 10.8113 12.3525 11.0412 13.2619L11.5009 15.1108C11.5709 15.4106 11.3909 15.7104 11.0911 15.7904C11.0511 15.8004 11.0012 15.8103 10.9612 15.8103L10.9513 15.8003ZM5.71448 14.691H10.2317L9.94187 13.5418C9.84194 13.132 9.46215 12.8322 9.04241 12.8422H6.90374C6.474 12.8422 6.10427 13.132 6.00433 13.5418L5.71448 14.691Z" fill="#0C315A"/>
<path d="M7.96994 9.85428C5.20168 9.85428 2.95312 7.60567 2.95312 4.8374V0.370194C2.95312 0.0603881 3.20297 -0.189453 3.51277 -0.189453H12.4372C12.747 -0.189453 12.9968 0.0603881 12.9968 0.370194V4.8374C12.9968 7.60567 10.7482 9.85428 7.97995 9.85428H7.96994ZM4.07242 0.929872V4.8374C4.07242 6.99605 5.8213 8.74496 7.97995 8.74496C10.1386 8.74496 11.8875 6.99605 11.8875 4.8374V0.929872H4.08242H4.07242Z" fill="#0C315A"/>
<path d="M7.97371 12.8328C7.6639 12.8328 7.41406 12.5829 7.41406 12.2731V9.295C7.41406 8.98519 7.6639 8.73535 7.97371 8.73535C8.28352 8.73535 8.53336 8.98519 8.53336 9.295V12.2731C8.53336 12.5829 8.28352 12.8328 7.97371 12.8328Z" fill="#0C315A"/>
<path d="M4.11665 7.62583H2.76752C1.63822 7.62583 0.71875 6.70642 0.71875 5.57713V3.34851C0.71875 2.21922 1.63822 1.2998 2.76752 1.2998H3.50704C3.81685 1.2998 4.06669 1.54965 4.06669 1.85945C4.06669 2.16926 3.81685 2.4191 3.50704 2.4191H2.76752C2.25784 2.4191 1.83811 2.83883 1.83811 3.34851V5.57713C1.83811 6.08681 2.25784 6.50654 2.76752 6.50654H4.11665C4.42646 6.50654 4.6763 6.75638 4.6763 7.06619C4.6763 7.37599 4.42646 7.62583 4.11665 7.62583Z" fill="#0C315A"/>
<path d="M13.1822 7.62583H11.8331C11.5233 7.62583 11.2734 7.37599 11.2734 7.06619C11.2734 6.75638 11.5233 6.50654 11.8331 6.50654H13.1822C13.6919 6.50654 14.1116 6.08681 14.1116 5.57713V3.34851C14.1116 2.83883 13.6919 2.4191 13.1822 2.4191H12.4427C12.1329 2.4191 11.883 2.16926 11.883 1.85945C11.883 1.54965 12.1329 1.2998 12.4427 1.2998H13.1822C14.3115 1.2998 15.2309 2.21922 15.2309 3.34851V5.57713C15.2309 6.70642 14.3115 7.62583 13.1822 7.62583Z" fill="#0C315A"/>
<path d="M11.6903 15.8009H4.25496C3.94515 15.8009 3.69531 15.5511 3.69531 15.2413C3.69531 14.9315 3.94515 14.6816 4.25496 14.6816H11.6903C12.0001 14.6816 12.25 14.9315 12.25 15.2413C12.25 15.5511 12.0001 15.8009 11.6903 15.8009Z" fill="#0C315A"/>
<path d="M10.9513 15.8003H5.00496C4.69515 15.8003 4.44531 15.5505 4.44531 15.2407C4.44531 15.1907 4.44527 15.1507 4.46526 15.1108L4.92499 13.2619C5.15485 12.3525 5.97433 11.7129 6.91374 11.7129H9.05242C9.99183 11.7129 10.8113 12.3525 11.0412 13.2619L11.5009 15.1108C11.5709 15.4106 11.3909 15.7104 11.0911 15.7904C11.0511 15.8004 11.0012 15.8103 10.9612 15.8103L10.9513 15.8003ZM5.71448 14.691H10.2317L9.94187 13.5418C9.84194 13.132 9.46215 12.8322 9.04241 12.8422H6.90374C6.474 12.8422 6.10427 13.132 6.00433 13.5418L5.71448 14.691Z" fill="#0C315A"/>
<path d="M7.96994 9.85428C5.20168 9.85428 2.95312 7.60567 2.95312 4.8374V0.370194C2.95312 0.0603881 3.20297 -0.189453 3.51277 -0.189453H12.4372C12.747 -0.189453 12.9968 0.0603881 12.9968 0.370194V4.8374C12.9968 7.60567 10.7482 9.85428 7.97995 9.85428H7.96994ZM4.07242 0.929872V4.8374C4.07242 6.99605 5.8213 8.74496 7.97995 8.74496C10.1386 8.74496 11.8875 6.99605 11.8875 4.8374V0.929872H4.08242H4.07242Z" fill="#0C315A"/>
<path d="M7.97371 12.8328C7.6639 12.8328 7.41406 12.5829 7.41406 12.2731V9.295C7.41406 8.98519 7.6639 8.73535 7.97371 8.73535C8.28352 8.73535 8.53336 8.98519 8.53336 9.295V12.2731C8.53336 12.5829 8.28352 12.8328 7.97371 12.8328Z" fill="#0C315A"/>
<path d="M4.11665 7.62583H2.76752C1.63822 7.62583 0.71875 6.70642 0.71875 5.57713V3.34851C0.71875 2.21922 1.63822 1.2998 2.76752 1.2998H3.50704C3.81685 1.2998 4.06669 1.54965 4.06669 1.85945C4.06669 2.16926 3.81685 2.4191 3.50704 2.4191H2.76752C2.25784 2.4191 1.83811 2.83883 1.83811 3.34851V5.57713C1.83811 6.08681 2.25784 6.50654 2.76752 6.50654H4.11665C4.42646 6.50654 4.6763 6.75638 4.6763 7.06619C4.6763 7.37599 4.42646 7.62583 4.11665 7.62583Z" fill="#0C315A"/>
<path d="M13.1822 7.62583H11.8331C11.5233 7.62583 11.2734 7.37599 11.2734 7.06619C11.2734 6.75638 11.5233 6.50654 11.8331 6.50654H13.1822C13.6919 6.50654 14.1116 6.08681 14.1116 5.57713V3.34851C14.1116 2.83883 13.6919 2.4191 13.1822 2.4191H12.4427C12.1329 2.4191 11.883 2.16926 11.883 1.85945C11.883 1.54965 12.1329 1.2998 12.4427 1.2998H13.1822C14.3115 1.2998 15.2309 2.21922 15.2309 3.34851V5.57713C15.2309 6.70642 14.3115 7.62583 13.1822 7.62583Z" fill="#0C315A"/>
</g>
<defs>
<clipPath id="clip0_18598_61326">
<rect width="16" height="16" fill="white"/>
</clipPath>
</defs>
</svg>
