<svg width="16" height="16" viewBox="0 0 16 16" fill="none" xmlns="http://www.w3.org/2000/svg">
<g clip-path="url(#clip0_18598_61319)">
<path d="M14.2148 0.5H11.728C11.3976 0.5 11.0817 0.63285 10.8481 0.867337C10.6145 1.10182 10.4834 1.41954 10.4826 1.75167V4.2502C10.4826 4.41426 10.4506 4.57752 10.3882 4.72878C10.3258 4.88084 10.2346 5.01849 10.1186 5.13453C10.0034 5.25057 9.86586 5.34261 9.71468 5.40583C9.56351 5.46906 9.40193 5.50107 9.23875 5.50107H6.74952C6.41917 5.50107 6.10322 5.36822 5.87046 5.13373C5.63769 4.89924 5.50651 4.58072 5.50651 4.2494V1.75167C5.50651 1.42034 5.37533 1.10182 5.14256 0.867337C4.9098 0.63285 4.59305 0.5008 4.26349 0.5H1.77426C1.44391 0.5 1.12796 0.63285 0.895196 0.867337C0.662431 1.10182 0.53125 1.42034 0.53125 1.75167V4.2502C0.53125 4.41426 0.563245 4.57752 0.625635 4.72878C0.688026 4.88084 0.779213 5.01849 0.895196 5.13453C1.01038 5.25057 1.14796 5.34261 1.29914 5.40583C1.45031 5.46906 1.61189 5.50107 1.77507 5.50107H4.26429C4.59384 5.50107 4.9106 5.63232 5.14336 5.8668C5.37693 6.10129 5.50731 6.41901 5.50731 6.75033V9.25127C5.50731 9.58259 5.37613 9.90031 5.14336 10.1348C4.9098 10.3693 4.59384 10.5005 4.26429 10.5005H1.77507C1.44551 10.5005 1.12876 10.6318 0.895995 10.8663C0.66243 11.1008 0.532049 11.4185 0.532049 11.7498V14.2507C0.532049 14.5821 0.66323 14.8998 0.895995 15.1343C1.12956 15.3688 1.44551 15.5 1.77507 15.5H4.26429C4.59384 15.5 4.9106 15.3688 5.14336 15.1343C5.37693 14.8998 5.50731 14.5821 5.50731 14.2507V11.7498C5.50731 11.4185 5.63849 11.1008 5.87125 10.8663C6.10482 10.6318 6.42077 10.5005 6.75032 10.5005H9.23955C9.5691 10.5005 9.88586 10.6318 10.1186 10.8663C10.3522 11.1008 10.4826 11.4185 10.4826 11.7498V14.2507C10.4826 14.5821 10.6145 14.8998 10.8481 15.1343C11.0817 15.3688 11.3984 15.5 11.728 15.5H14.2148C14.378 15.5 14.5404 15.468 14.6915 15.4056C14.8427 15.3431 14.9803 15.2511 15.0955 15.1351C15.2115 15.019 15.3027 14.8814 15.3658 14.7293C15.4282 14.5781 15.461 14.4148 15.461 14.2507V11.7498C15.461 11.5857 15.429 11.4233 15.3658 11.2712C15.3035 11.12 15.2115 10.9815 15.0955 10.8655C14.9795 10.7494 14.8427 10.6574 14.6915 10.595C14.5404 10.5325 14.3788 10.5005 14.2148 10.5005H11.728C11.3976 10.5005 11.0817 10.3693 10.8481 10.1348C10.6145 9.90031 10.4834 9.58259 10.4826 9.25127V6.75033C10.4826 6.41901 10.6145 6.10129 10.8481 5.8668C11.0817 5.63232 11.3984 5.50107 11.728 5.50107H14.2148C14.3788 5.50107 14.5404 5.46906 14.6915 5.40663C14.8427 5.34421 14.9803 5.25137 15.0963 5.13533C15.2123 5.01929 15.3035 4.88084 15.3658 4.72878C15.4282 4.57672 15.4602 4.41426 15.4602 4.2494V1.75167C15.4602 1.41954 15.329 1.10102 15.0955 0.866537C14.8619 0.632049 14.5452 0.5 14.2148 0.5Z" fill="#0C315A"/>
</g>
<defs>
<clipPath id="clip0_18598_61319">
<rect width="16" height="16" fill="white"/>
</clipPath>
</defs>
</svg>
