<svg width="16" height="16" viewBox="0 0 16 16" fill="none" xmlns="http://www.w3.org/2000/svg">
<g clip-path="url(#clip0_18598_61358)">
<path d="M8.01311 3.59766C4.4134 3.59766 1.69531 6.26942 1.69531 9.7989C1.69531 13.3299 4.4134 16.0001 8.01311 16.0001C11.5904 16.0001 14.3085 13.3284 14.3085 9.7989C14.307 6.26793 11.5904 3.59766 8.01311 3.59766ZM8.01311 14.0725C5.57445 14.0725 3.7619 12.2376 3.7619 9.7989C3.7619 7.36024 5.57445 5.52527 8.01311 5.52527C10.4294 5.52527 12.2404 7.36024 12.2404 9.7989C12.2404 12.2376 10.4279 14.0725 8.01311 14.0725Z" fill="#0C315A"/>
<path d="M6.71025 0.000352246L1.82812 2.14258L2.56542 3.82286L7.44754 1.68064L6.71025 0.000352246Z" fill="#0C315A"/>
</g>
<defs>
<clipPath id="clip0_18598_61358">
<rect width="16" height="16" fill="white"/>
</clipPath>
</defs>
</svg>
