<svg width="24" height="25" viewBox="0 0 24 25" fill="none" xmlns="http://www.w3.org/2000/svg">
<g id="ic_search">
<path id="Vector" d="M9.52183 16.6436C7.70063 16.6436 6.15831 16.0121 4.89488 14.7492C3.63163 13.4861 3 11.9443 3 10.1236C3 8.30285 3.63163 6.76096 4.89488 5.49787C6.15831 4.23497 7.70063 3.60352 9.52183 3.60352C11.343 3.60352 12.8854 4.23497 14.1488 5.49787C15.412 6.76096 16.0437 8.30285 16.0437 10.1236C16.0437 10.885 15.9159 11.6122 15.6603 12.3052C15.4045 12.9983 15.0633 13.601 14.6367 14.1135L20.7733 20.2484C20.921 20.3959 20.9965 20.5814 20.9999 20.8049C21.0033 21.0285 20.9277 21.2175 20.7733 21.3719C20.6188 21.5263 20.4315 21.6035 20.2112 21.6035C19.9912 21.6035 19.8039 21.5263 19.6495 21.3719L13.5129 15.237C12.9796 15.6772 12.3664 16.0216 11.6732 16.2704C10.98 16.5192 10.2629 16.6436 9.52183 16.6436ZM9.52183 15.0446C10.896 15.0446 12.0599 14.5678 13.0135 13.6143C13.9673 12.6609 14.4442 11.4973 14.4442 10.1236C14.4442 8.74976 13.9673 7.58619 13.0135 6.63284C12.0599 5.6793 10.896 5.20254 9.52183 5.20254C8.14766 5.20254 6.98377 5.6793 6.03015 6.63284C5.07636 7.58619 4.59946 8.74976 4.59946 10.1236C4.59946 11.4973 5.07636 12.6609 6.03015 13.6143C6.98377 14.5678 8.14766 15.0446 9.52183 15.0446Z" fill="black" fill-opacity="0.65"/>
</g>
</svg>
