<svg width="560" height="898" viewBox="0 0 560 898" fill="none" xmlns="http://www.w3.org/2000/svg">
<g clip-path="url(#clip0_1943_27230)">
<g opacity="0.15">
<path d="M33.9502 0V895.732" stroke="white" stroke-width="0.25" stroke-miterlimit="10"/>
<path d="M114.363 0V895.732" stroke="white" stroke-width="0.25" stroke-miterlimit="10"/>
<path d="M194.594 0.183105V895.915" stroke="white" stroke-width="0.25" stroke-miterlimit="10"/>
<path d="M275.263 2.26758V898" stroke="white" stroke-width="0.25" stroke-miterlimit="10"/>
<path d="M355.639 2.26758V898" stroke="white" stroke-width="0.25" stroke-miterlimit="10"/>
<path d="M436.052 2.26758V898" stroke="white" stroke-width="0.25" stroke-miterlimit="10"/>
<path d="M516.465 2.26758V898" stroke="white" stroke-width="0.25" stroke-miterlimit="10"/>
<path d="M560 92.8286H0" stroke="white" stroke-width="0.25" stroke-miterlimit="10"/>
<path d="M560 186.022H0" stroke="white" stroke-width="0.25" stroke-miterlimit="10"/>
<path d="M560 279.217H0" stroke="white" stroke-width="0.25" stroke-miterlimit="10"/>
<path d="M560 372.411H0" stroke="white" stroke-width="0.25" stroke-miterlimit="10"/>
<path d="M560 465.569H0" stroke="white" stroke-width="0.25" stroke-miterlimit="10"/>
<path d="M560 558.763H0" stroke="white" stroke-width="0.25" stroke-miterlimit="10"/>
<path d="M560 651.957H0" stroke="white" stroke-width="0.25" stroke-miterlimit="10"/>
<path d="M560 745.151H0" stroke="white" stroke-width="0.25" stroke-miterlimit="10"/>
<path d="M560 838.309H0" stroke="white" stroke-width="0.25" stroke-miterlimit="10"/>
</g>
<path d="M33.9139 95.3519C35.3485 95.3519 36.5114 94.1893 36.5114 92.7551C36.5114 91.3209 35.3485 90.1582 33.9139 90.1582C32.4793 90.1582 31.3164 91.3209 31.3164 92.7551C31.3164 94.1893 32.4793 95.3519 33.9139 95.3519Z" fill="#282828"/>
<path d="M33.9139 188.217C35.3485 188.217 36.5114 187.054 36.5114 185.62C36.5114 184.186 35.3485 183.023 33.9139 183.023C32.4793 183.023 31.3164 184.186 31.3164 185.62C31.3164 187.054 32.4793 188.217 33.9139 188.217Z" fill="#282828"/>
<path d="M33.9139 281.813C35.3485 281.813 36.5114 280.651 36.5114 279.216C36.5114 277.782 35.3485 276.62 33.9139 276.62C32.4793 276.62 31.3164 277.782 31.3164 279.216C31.3164 280.651 32.4793 281.813 33.9139 281.813Z" fill="#282828"/>
<path d="M33.9139 375.41C35.3485 375.41 36.5114 374.247 36.5114 372.813C36.5114 371.379 35.3485 370.216 33.9139 370.216C32.4793 370.216 31.3164 371.379 31.3164 372.813C31.3164 374.247 32.4793 375.41 33.9139 375.41Z" fill="#282828"/>
<path d="M33.95 468.458C35.3846 468.458 36.5475 467.295 36.5475 465.861C36.5475 464.427 35.3846 463.264 33.95 463.264C32.5155 463.264 31.3525 464.427 31.3525 465.861C31.3525 467.295 32.5155 468.458 33.95 468.458Z" fill="#282828"/>
<path d="M34.1698 561.177C35.6043 561.177 36.7673 560.014 36.7673 558.58C36.7673 557.146 35.6043 555.983 34.1698 555.983C32.7352 555.983 31.5723 557.146 31.5723 558.58C31.5723 560.014 32.7352 561.177 34.1698 561.177Z" fill="#282828"/>
<path d="M33.9139 654.883C35.3485 654.883 36.5114 653.72 36.5114 652.286C36.5114 650.852 35.3485 649.689 33.9139 649.689C32.4793 649.689 31.3164 650.852 31.3164 652.286C31.3164 653.72 32.4793 654.883 33.9139 654.883Z" fill="#282828"/>
<path d="M516.172 654.883C517.606 654.883 518.769 653.72 518.769 652.286C518.769 650.852 517.606 649.689 516.172 649.689C514.737 649.689 513.574 650.852 513.574 652.286C513.574 653.72 514.737 654.883 516.172 654.883Z" fill="#282828"/>
<path d="M516.172 746.943C517.606 746.943 518.769 745.781 518.769 744.346C518.769 742.912 517.606 741.75 516.172 741.75C514.737 741.75 513.574 742.912 513.574 744.346C513.574 745.781 514.737 746.943 516.172 746.943Z" fill="#282828"/>
<path d="M33.9139 749.796C35.3485 749.796 36.5114 748.634 36.5114 747.199C36.5114 745.765 35.3485 744.603 33.9139 744.603C32.4793 744.603 31.3164 745.765 31.3164 747.199C31.3164 748.634 32.4793 749.796 33.9139 749.796Z" fill="#282828"/>
<path d="M33.9139 840.796C35.3485 840.796 36.5114 839.633 36.5114 838.199C36.5114 836.765 35.3485 835.602 33.9139 835.602C32.4793 835.602 31.3164 836.765 31.3164 838.199C31.3164 839.633 32.4793 840.796 33.9139 840.796Z" fill="#282828"/>
<path d="M114.363 95.3519C115.798 95.3519 116.961 94.1893 116.961 92.7551C116.961 91.3209 115.798 90.1582 114.363 90.1582C112.929 90.1582 111.766 91.3209 111.766 92.7551C111.766 94.1893 112.929 95.3519 114.363 95.3519Z" fill="#282828"/>
<path d="M194.776 95.3519C196.211 95.3519 197.374 94.1893 197.374 92.7551C197.374 91.3209 196.211 90.1582 194.776 90.1582C193.342 90.1582 192.179 91.3209 192.179 92.7551C192.179 94.1893 193.342 95.3519 194.776 95.3519Z" fill="#282828"/>
<path d="M275.225 95.3519C276.66 95.3519 277.823 94.1893 277.823 92.7551C277.823 91.3209 276.66 90.1582 275.225 90.1582C273.791 90.1582 272.628 91.3209 272.628 92.7551C272.628 94.1893 273.791 95.3519 275.225 95.3519Z" fill="#282828"/>
<path d="M355.639 95.3519C357.073 95.3519 358.236 94.1893 358.236 92.7551C358.236 91.3209 357.073 90.1582 355.639 90.1582C354.204 90.1582 353.041 91.3209 353.041 92.7551C353.041 94.1893 354.204 95.3519 355.639 95.3519Z" fill="#282828"/>
<path d="M436.088 95.3519C437.522 95.3519 438.685 94.1893 438.685 92.7551C438.685 91.3209 437.522 90.1582 436.088 90.1582C434.653 90.1582 433.49 91.3209 433.49 92.7551C433.49 94.1893 434.653 95.3519 436.088 95.3519Z" fill="#282828"/>
<path d="M516.538 95.3519C517.973 95.3519 519.135 94.1893 519.135 92.7551C519.135 91.3209 517.973 90.1582 516.538 90.1582C515.103 90.1582 513.94 91.3209 513.94 92.7551C513.94 94.1893 515.103 95.3519 516.538 95.3519Z" fill="#282828"/>
<path d="M114.363 281.813C115.798 281.813 116.961 280.651 116.961 279.216C116.961 277.782 115.798 276.62 114.363 276.62C112.929 276.62 111.766 277.782 111.766 279.216C111.766 280.651 112.929 281.813 114.363 281.813Z" fill="#282828"/>
<path d="M194.776 281.813C196.211 281.813 197.374 280.651 197.374 279.216C197.374 277.782 196.211 276.62 194.776 276.62C193.342 276.62 192.179 277.782 192.179 279.216C192.179 280.651 193.342 281.813 194.776 281.813Z" fill="#282828"/>
<path d="M275.225 281.813C276.66 281.813 277.823 280.651 277.823 279.216C277.823 277.782 276.66 276.62 275.225 276.62C273.791 276.62 272.628 277.782 272.628 279.216C272.628 280.651 273.791 281.813 275.225 281.813Z" fill="#282828"/>
<path d="M355.639 281.813C357.073 281.813 358.236 280.651 358.236 279.216C358.236 277.782 357.073 276.62 355.639 276.62C354.204 276.62 353.041 277.782 353.041 279.216C353.041 280.651 354.204 281.813 355.639 281.813Z" fill="#282828"/>
<path d="M436.088 281.813C437.522 281.813 438.685 280.651 438.685 279.216C438.685 277.782 437.522 276.62 436.088 276.62C434.653 276.62 433.49 277.782 433.49 279.216C433.49 280.651 434.653 281.813 436.088 281.813Z" fill="#282828"/>
<path d="M516.538 281.813C517.973 281.813 519.135 280.651 519.135 279.216C519.135 277.782 517.973 276.62 516.538 276.62C515.103 276.62 513.94 277.782 513.94 279.216C513.94 280.651 515.103 281.813 516.538 281.813Z" fill="#282828"/>
<path d="M114.363 468.275C115.798 468.275 116.961 467.112 116.961 465.678C116.961 464.244 115.798 463.081 114.363 463.081C112.929 463.081 111.766 464.244 111.766 465.678C111.766 467.112 112.929 468.275 114.363 468.275Z" fill="#282828"/>
<path d="M194.776 468.275C196.211 468.275 197.374 467.112 197.374 465.678C197.374 464.244 196.211 463.081 194.776 463.081C193.342 463.081 192.179 464.244 192.179 465.678C192.179 467.112 193.342 468.275 194.776 468.275Z" fill="#282828"/>
<path d="M275.225 468.275C276.66 468.275 277.823 467.112 277.823 465.678C277.823 464.244 276.66 463.081 275.225 463.081C273.791 463.081 272.628 464.244 272.628 465.678C272.628 467.112 273.791 468.275 275.225 468.275Z" fill="#282828"/>
<path d="M355.639 468.275C357.073 468.275 358.236 467.112 358.236 465.678C358.236 464.244 357.073 463.081 355.639 463.081C354.204 463.081 353.041 464.244 353.041 465.678C353.041 467.112 354.204 468.275 355.639 468.275Z" fill="#282828"/>
<path d="M436.088 468.275C437.522 468.275 438.685 467.112 438.685 465.678C438.685 464.244 437.522 463.081 436.088 463.081C434.653 463.081 433.49 464.244 433.49 465.678C433.49 467.112 434.653 468.275 436.088 468.275Z" fill="#282828"/>
<path d="M516.538 468.275C517.973 468.275 519.135 467.112 519.135 465.678C519.135 464.244 517.973 463.081 516.538 463.081C515.103 463.081 513.94 464.244 513.94 465.678C513.94 467.112 515.103 468.275 516.538 468.275Z" fill="#282828"/>
<path d="M114.363 375.008C115.798 375.008 116.961 373.845 116.961 372.411C116.961 370.977 115.798 369.814 114.363 369.814C112.929 369.814 111.766 370.977 111.766 372.411C111.766 373.845 112.929 375.008 114.363 375.008Z" fill="#282828"/>
<path d="M194.776 375.008C196.211 375.008 197.374 373.845 197.374 372.411C197.374 370.977 196.211 369.814 194.776 369.814C193.342 369.814 192.179 370.977 192.179 372.411C192.179 373.845 193.342 375.008 194.776 375.008Z" fill="#282828"/>
<path d="M275.225 375.008C276.66 375.008 277.823 373.845 277.823 372.411C277.823 370.977 276.66 369.814 275.225 369.814C273.791 369.814 272.628 370.977 272.628 372.411C272.628 373.845 273.791 375.008 275.225 375.008Z" fill="#282828"/>
<path d="M355.639 375.008C357.073 375.008 358.236 373.845 358.236 372.411C358.236 370.977 357.073 369.814 355.639 369.814C354.204 369.814 353.041 370.977 353.041 372.411C353.041 373.845 354.204 375.008 355.639 375.008Z" fill="#282828"/>
<path d="M436.088 375.008C437.522 375.008 438.685 373.845 438.685 372.411C438.685 370.977 437.522 369.814 436.088 369.814C434.653 369.814 433.49 370.977 433.49 372.411C433.49 373.845 434.653 375.008 436.088 375.008Z" fill="#282828"/>
<path d="M516.537 375.008C517.972 375.008 519.134 373.845 519.134 372.411C519.134 370.977 517.972 369.814 516.537 369.814C515.102 369.814 513.939 370.977 513.939 372.411C513.939 373.845 515.102 375.008 516.537 375.008Z" fill="#282828"/>
<path d="M114.363 188.619C115.798 188.619 116.961 187.457 116.961 186.023C116.961 184.588 115.798 183.426 114.363 183.426C112.929 183.426 111.766 184.588 111.766 186.023C111.766 187.457 112.929 188.619 114.363 188.619Z" fill="#282828"/>
<path d="M194.776 188.619C196.211 188.619 197.374 187.457 197.374 186.023C197.374 184.588 196.211 183.426 194.776 183.426C193.342 183.426 192.179 184.588 192.179 186.023C192.179 187.457 193.342 188.619 194.776 188.619Z" fill="#282828"/>
<path d="M275.225 188.619C276.66 188.619 277.823 187.457 277.823 186.023C277.823 184.588 276.66 183.426 275.225 183.426C273.791 183.426 272.628 184.588 272.628 186.023C272.628 187.457 273.791 188.619 275.225 188.619Z" fill="#282828"/>
<path d="M355.639 188.619C357.073 188.619 358.236 187.457 358.236 186.023C358.236 184.588 357.073 183.426 355.639 183.426C354.204 183.426 353.041 184.588 353.041 186.023C353.041 187.457 354.204 188.619 355.639 188.619Z" fill="#282828"/>
<path d="M436.088 188.619C437.522 188.619 438.685 187.457 438.685 186.023C438.685 184.588 437.522 183.426 436.088 183.426C434.653 183.426 433.49 184.588 433.49 186.023C433.49 187.457 434.653 188.619 436.088 188.619Z" fill="#282828"/>
<path d="M516.537 188.619C517.972 188.619 519.134 187.457 519.134 186.023C519.134 184.588 517.972 183.426 516.537 183.426C515.102 183.426 513.939 184.588 513.939 186.023C513.939 187.457 515.102 188.619 516.537 188.619Z" fill="#282828"/>
<path d="M516.538 561.177C517.973 561.177 519.135 560.014 519.135 558.58C519.135 557.146 517.973 555.983 516.538 555.983C515.103 555.983 513.94 557.146 513.94 558.58C513.94 560.014 515.103 561.177 516.538 561.177Z" fill="#282828"/>
<path d="M114.363 843.392C115.798 843.392 116.961 842.23 116.961 840.796C116.961 839.361 115.798 838.199 114.363 838.199C112.929 838.199 111.766 839.361 111.766 840.796C111.766 842.23 112.929 843.392 114.363 843.392Z" fill="#282828"/>
<path d="M194.776 843.392C196.211 843.392 197.374 842.23 197.374 840.796C197.374 839.361 196.211 838.199 194.776 838.199C193.342 838.199 192.179 839.361 192.179 840.796C192.179 842.23 193.342 843.392 194.776 843.392Z" fill="#282828"/>
<path d="M275.225 843.392C276.66 843.392 277.823 842.23 277.823 840.796C277.823 839.361 276.66 838.199 275.225 838.199C273.791 838.199 272.628 839.361 272.628 840.796C272.628 842.23 273.791 843.392 275.225 843.392Z" fill="#282828"/>
<path d="M355.639 843.392C357.073 843.392 358.236 842.23 358.236 840.796C358.236 839.361 357.073 838.199 355.639 838.199C354.204 838.199 353.041 839.361 353.041 840.796C353.041 842.23 354.204 843.392 355.639 843.392Z" fill="#282828"/>
<path d="M436.088 843.392C437.522 843.392 438.685 842.23 438.685 840.796C438.685 839.361 437.522 838.199 436.088 838.199C434.653 838.199 433.49 839.361 433.49 840.796C433.49 842.23 434.653 843.392 436.088 843.392Z" fill="#282828"/>
<path d="M516.537 843.392C517.972 843.392 519.134 842.23 519.134 840.796C519.134 839.361 517.972 838.199 516.537 838.199C515.102 838.199 513.939 839.361 513.939 840.796C513.939 842.23 515.102 843.392 516.537 843.392Z" fill="#282828"/>
</g>
<defs>
<clipPath id="clip0_1943_27230">
<rect width="560" height="898" fill="white"/>
</clipPath>
</defs>
</svg>
