<svg width="217" height="50" viewBox="0 0 217 50" fill="none" xmlns="http://www.w3.org/2000/svg">
<g clip-path="url(#clip0_3102_960)">
<path d="M77.5215 7.22836H65.9465C64.0715 7.22836 62.5525 8.74436 62.5455 10.6174H62.5435V12.2104H62.5445V36.6564C62.5445 36.9454 62.7785 37.1794 63.0675 37.1794H66.7305C67.0185 37.1794 67.2535 36.9464 67.2535 36.6574V25.8154C67.2535 25.5544 67.4655 25.3424 67.7275 25.3424H77.6975C82.0735 25.3424 85.6225 21.7944 85.6225 17.4184V15.3274C85.6225 10.8534 81.9965 7.22736 77.5225 7.22736L77.5215 7.22836ZM80.9125 17.0674C80.9125 19.3034 79.0995 21.1164 76.8625 21.1164H67.7405C67.4715 21.1164 67.2535 20.8984 67.2535 20.6304V12.1764C67.2535 11.9074 67.4715 11.6894 67.7405 11.6894H76.8635C79.1005 11.6894 80.9125 13.5024 80.9125 15.7394V17.0664V17.0674Z" fill="black"/>
<path d="M106.845 15.8735C107.133 15.8735 107.366 16.1075 107.366 16.3945V36.6575C107.366 36.9445 107.132 37.1785 106.845 37.1785H103.44C103.152 37.1785 102.919 36.9445 102.919 36.6575V35.5715C102.919 35.3425 102.645 35.2255 102.48 35.3835C100.949 36.8515 98.8716 37.7545 96.5836 37.7545C96.5146 37.7545 96.4466 37.7535 96.3776 37.7515C96.3356 37.7515 96.2926 37.7545 96.2496 37.7545C94.5756 37.7545 93.1136 37.4585 91.8656 36.8695C90.6156 36.2805 89.5806 35.4765 88.7566 34.4615C87.9336 33.4465 87.3156 32.2455 86.9046 30.8585C86.4926 29.4735 86.2876 27.9845 86.2876 26.3925C86.2876 24.4725 86.5476 22.8105 87.0696 21.4105C87.5916 20.0105 88.2846 18.8575 89.1486 17.9525C90.0126 17.0465 91.0006 16.3805 92.1126 15.9555C92.7696 15.7045 93.4336 15.5295 94.1046 15.4265V15.4245C94.1046 15.4245 97.0606 14.9075 99.3936 15.8795C99.4326 15.8965 99.4686 15.9115 99.5026 15.9275C100.526 16.3385 101.45 16.9395 102.232 17.6905C102.398 17.8495 102.673 17.7335 102.673 17.5045V16.3965C102.673 16.1085 102.906 15.8755 103.194 15.8755H106.847L106.845 15.8735ZM102.837 26.5135C102.837 24.1535 102.309 22.3135 101.252 20.9965C100.194 19.6785 98.7606 19.0205 96.9486 19.0205C95.8506 19.0205 94.9246 19.2475 94.1696 19.6995C93.4146 20.1525 92.7966 20.7425 92.3166 21.4695C91.8366 22.1975 91.4936 23.0205 91.2876 23.9395C91.0816 24.8595 90.9786 25.7995 90.9786 26.7605C90.9786 27.6665 91.0956 28.5585 91.3286 29.4365C91.5616 30.3155 91.9186 31.0975 92.3996 31.7835C92.8796 32.4695 93.4906 33.0185 94.2316 33.4305C94.9726 33.8415 95.8506 34.0475 96.8666 34.0475C97.8826 34.0475 98.8076 33.8275 99.5636 33.3885C100.318 32.9505 100.936 32.3735 101.417 31.6605C101.897 30.9465 102.253 30.1445 102.487 29.2515C102.72 28.3605 102.837 27.4475 102.837 26.5135Z" fill="black"/>
<path d="M123.786 15.8844V19.3524C123.786 19.6694 123.506 19.9114 123.192 19.8674C123.054 19.8484 122.916 19.8304 122.776 19.8134C122.432 19.7724 122.096 19.7514 121.767 19.7514C120.969 19.7514 120.222 19.9094 119.521 20.2254C118.821 20.5414 118.209 21.0084 117.687 21.6264C117.165 22.2444 116.753 23.0074 116.451 23.9134C116.149 24.8204 115.998 25.8644 115.998 27.0444V36.6614C115.998 36.9484 115.766 37.1804 115.478 37.1804H111.819C111.533 37.1804 111.3 36.9484 111.3 36.6614V16.3974C111.3 16.1114 111.532 15.8784 111.819 15.8784H115.189C115.476 15.8784 115.709 16.1114 115.709 16.3984V17.4784C115.709 17.7074 115.982 17.8234 116.147 17.6664C117.673 16.2034 119.744 15.3044 122.024 15.3034C122.086 15.3034 122.148 15.3054 122.209 15.3064H122.237V15.3034H121.874C121.92 15.3034 121.966 15.3014 122.012 15.3014C122.562 15.3014 122.939 15.3154 123.145 15.3424C123.206 15.3504 123.269 15.3594 123.331 15.3664C123.59 15.4004 123.784 15.6214 123.784 15.8824L123.786 15.8844Z" fill="black"/>
<path d="M136.341 33.2524V36.6554C136.341 36.9444 136.107 37.1774 135.819 37.1774H133.591C129.132 37.1774 125.517 33.5634 125.517 29.1034V10.3944C125.517 10.1074 125.75 9.87442 126.037 9.87442H129.69C129.978 9.87442 130.213 10.1094 130.213 10.3974V15.3784C130.213 15.6554 130.437 15.8804 130.714 15.8804H134.969C135.246 15.8804 135.47 16.1044 135.47 16.3814V19.6034C135.47 19.8804 135.246 20.1044 134.969 20.1044H130.714C130.437 20.1044 130.213 20.3294 130.213 20.6064V27.3044L130.21 27.7504L130.213 28.6504C130.213 30.8804 132.266 32.7314 134.496 32.7314H135.818C136.107 32.7314 136.34 32.9654 136.34 33.2534L136.341 33.2524Z" fill="black"/>
<path d="M150.154 15.3194C152.486 15.3194 154.325 15.9234 155.67 17.1314C157.015 18.3394 157.688 20.1504 157.688 22.5654V36.6604C157.688 36.9484 157.455 37.1814 157.167 37.1814H153.515C153.228 37.1814 152.994 36.9484 152.994 36.6604V23.8014C152.939 22.1274 152.582 20.9124 151.924 20.1574C151.265 19.4034 150.235 19.0254 148.836 19.0254C148.039 19.0254 147.325 19.1694 146.695 19.4574C146.064 19.7454 145.528 20.1444 145.09 20.6514C144.651 21.1594 144.308 21.7574 144.061 22.4424C143.814 23.1294 143.69 23.8564 143.69 24.6244V36.6594C143.69 36.9474 143.457 37.1804 143.169 37.1804H139.517C139.229 37.1804 138.996 36.9474 138.996 36.6594V16.4164C138.996 16.1284 139.229 15.8954 139.517 15.8954H142.921C143.209 15.8954 143.442 16.1294 143.442 16.4164V17.4984C143.442 17.7274 143.716 17.8444 143.882 17.6864C145.412 16.2204 147.489 15.3184 149.775 15.3184C149.837 15.3184 149.899 15.3204 149.961 15.3214C150.025 15.3204 150.088 15.3184 150.152 15.3184L150.154 15.3194Z" fill="black"/>
<path d="M165.537 28.1475C165.39 28.1475 165.273 28.2695 165.277 28.4165C165.3 29.0715 165.416 29.4595 165.624 30.1435C165.858 30.9155 166.21 31.5915 166.679 32.1705C167.148 32.7495 167.741 33.2125 168.458 33.5565C169.175 33.9015 170.03 34.0735 171.024 34.0735C172.403 34.0735 173.513 33.7775 174.355 33.1835C175.117 32.6465 175.705 31.8655 176.116 30.8395C176.195 30.6425 176.386 30.5145 176.598 30.5145H180.038C180.381 30.5145 180.637 30.8425 180.542 31.1725C180.285 32.0685 179.913 32.8835 179.423 33.6175C178.816 34.5275 178.085 35.2925 177.23 35.9135C176.375 36.5345 175.416 37.0035 174.354 37.3195C173.292 37.6365 172.182 37.7955 171.023 37.7955C169.34 37.7955 167.851 37.5195 166.554 36.9685C165.257 36.4165 164.161 35.6445 163.265 34.6515C162.368 33.6585 161.693 32.4725 161.238 31.0935C160.783 29.7145 160.555 28.1965 160.555 26.5415C160.555 25.0255 160.796 23.5825 161.279 22.2185C161.761 20.8525 162.451 19.6535 163.348 18.6185C164.244 17.5835 165.327 16.7635 166.596 16.1565C167.864 15.5505 169.299 15.2465 170.899 15.2465C172.581 15.2465 174.091 15.5985 175.43 16.3015C176.768 17.0045 177.878 17.9365 178.761 19.0945C179.643 20.2525 180.285 21.5835 180.685 23.0875C181.045 24.4435 181.165 26.1665 181.044 27.6655C181.022 27.9375 180.795 28.1455 180.522 28.1455H165.536V28.1465L165.537 28.1475ZM175.994 24.6405C176.146 24.6405 176.27 24.5085 176.252 24.3565C176.181 23.7135 176.031 23.0905 175.802 22.4885C175.539 21.7995 175.181 21.1995 174.726 20.6885C174.271 20.1785 173.719 19.7645 173.071 19.4475C172.423 19.1305 171.699 18.9715 170.899 18.9715C170.099 18.9715 169.32 19.1165 168.644 19.4065C167.968 19.6955 167.388 20.0955 166.906 20.6065C166.423 21.1175 166.037 21.7175 165.748 22.4065C165.491 23.0175 165.338 23.6715 165.287 24.3675C165.276 24.5155 165.397 24.6405 165.546 24.6405H175.994Z" fill="black"/>
<path d="M196.631 15.8844V19.3524C196.631 19.6694 196.351 19.9114 196.037 19.8674C195.899 19.8484 195.761 19.8304 195.621 19.8134C195.277 19.7724 194.941 19.7514 194.612 19.7514C193.814 19.7514 193.067 19.9094 192.366 20.2254C191.666 20.5414 191.054 21.0084 190.532 21.6264C190.01 22.2444 189.598 23.0074 189.296 23.9134C188.994 24.8204 188.843 25.8644 188.843 27.0444V36.6614C188.843 36.9484 188.611 37.1804 188.323 37.1804H184.664C184.378 37.1804 184.145 36.9484 184.145 36.6614V16.3974C184.145 16.1114 184.377 15.8784 184.664 15.8784H188.034C188.321 15.8784 188.554 16.1114 188.554 16.3984V17.4784C188.554 17.7074 188.827 17.8234 188.992 17.6664C190.518 16.2034 192.589 15.3044 194.869 15.3034C194.931 15.3034 194.993 15.3054 195.054 15.3064H195.082V15.3034H194.719C194.765 15.3034 194.811 15.3014 194.857 15.3014C195.407 15.3014 195.784 15.3154 195.99 15.3424C196.051 15.3504 196.114 15.3594 196.176 15.3664C196.435 15.4004 196.629 15.6214 196.629 15.8824L196.631 15.8844Z" fill="black"/>
<path d="M202.033 30.2703C202.287 30.2703 202.505 30.4533 202.547 30.7043C202.745 31.8543 203.249 32.6743 204.061 33.1663C204.971 33.7183 206.06 33.9943 207.33 33.9943C207.77 33.9943 208.274 33.9603 208.84 33.8913C209.405 33.8223 209.936 33.6913 210.433 33.4983C210.93 33.3053 211.337 33.0223 211.653 32.6503C211.97 32.2783 212.114 31.7883 212.088 31.1813C212.06 30.5753 211.84 30.0783 211.426 29.6913C211.012 29.3053 210.481 28.9953 209.833 28.7603C209.184 28.5263 208.447 28.3253 207.62 28.1603C206.792 27.9943 205.951 27.8153 205.096 27.6223C204.213 27.4293 203.365 27.1953 202.552 26.9193C201.738 26.6433 201.007 26.2713 200.359 25.8023C199.71 25.3333 199.193 24.7343 198.807 24.0023C198.421 23.2713 198.228 22.3683 198.228 21.2923C198.228 20.1343 198.51 19.1613 199.076 18.3753C199.641 17.5893 200.359 16.9553 201.228 16.4723C202.096 15.9893 203.062 15.6513 204.124 15.4583C205.186 15.2653 206.199 15.1693 207.165 15.1693C208.268 15.1693 209.323 15.2863 210.331 15.5213C211.338 15.7563 212.248 16.1353 213.062 16.6593C213.875 17.1833 214.552 17.8663 215.089 18.7073C215.531 19.3993 215.837 20.2053 216.009 21.1273C216.069 21.4493 215.823 21.7483 215.496 21.7483H211.593C211.357 21.7483 211.152 21.5903 211.089 21.3633C210.832 20.4433 210.345 19.8143 209.628 19.4733C208.814 19.0873 207.883 18.8943 206.835 18.8943C206.504 18.8943 206.111 18.9223 205.655 18.9773C205.2 19.0333 204.772 19.1363 204.372 19.2873C203.972 19.4393 203.634 19.6593 203.358 19.9493C203.082 20.2383 202.945 20.6183 202.945 21.0873C202.945 21.6663 203.145 22.1353 203.545 22.4933C203.944 22.8523 204.469 23.1483 205.117 23.3823C205.765 23.6173 206.503 23.8173 207.33 23.9823C208.157 24.1483 209.012 24.3273 209.895 24.5203C210.75 24.7133 211.591 24.9483 212.419 25.2233C213.247 25.4993 213.984 25.8723 214.632 26.3413C215.28 26.8103 215.804 27.4033 216.204 28.1203C216.604 28.8383 216.804 29.7203 216.804 30.7683C216.804 32.0373 216.514 33.1123 215.935 33.9953C215.356 34.8783 214.604 35.5953 213.68 36.1473C212.755 36.6993 211.728 37.0983 210.597 37.3473C209.466 37.5953 208.349 37.7193 207.246 37.7193C205.894 37.7193 204.646 37.5673 203.502 37.2643C202.357 36.9613 201.364 36.4993 200.523 35.8783C199.681 35.2573 199.02 34.4853 198.537 33.5613C198.127 32.7773 197.882 31.8693 197.8 30.8353C197.776 30.5313 198.017 30.2723 198.322 30.2723H202.033V30.2703Z" fill="black"/>
<path d="M48.4323 6.62998L42.4123 1.62898C39.8013 -0.54102 36.0133 -0.54102 33.4033 1.62898L26.1203 7.67798L18.8433 1.62898C16.2323 -0.54102 12.4503 -0.54402 9.83731 1.62298L3.80331 6.62998C1.51631 8.52698 0.195312 11.343 0.195312 14.315V26.77C0.195312 29.736 1.51431 32.549 3.79531 34.445L19.7313 47.694C23.4313 50.769 28.7993 50.769 32.4963 47.694L48.4323 34.445C50.7153 32.547 52.0353 29.732 52.0353 26.764V14.31C52.0353 11.344 50.7133 8.52798 48.4323 6.63098V6.62998ZM47.3373 25.941C47.3373 28.035 46.4033 30.023 44.7943 31.362L30.6193 43.146C28.0083 45.316 24.2203 45.316 21.6073 43.146L7.43231 31.362C5.82331 30.023 4.89231 28.035 4.89231 25.941V15.14C4.89231 13.043 5.82631 11.055 7.44131 9.71598L11.7113 6.17498C13.2353 4.90998 15.4433 4.91198 16.9643 6.17798L22.4433 10.733L14.4473 17.372C12.4713 19.016 12.4683 22.05 14.4443 23.694L23.4683 31.214C24.9923 32.483 27.2033 32.485 28.7273 31.217L37.7773 23.694C39.7533 22.05 39.7533 19.016 37.7773 17.372L33.3833 13.72C33.1663 13.539 32.8503 13.539 32.6323 13.72L29.8753 16.01C29.5923 16.245 29.5923 16.679 29.8753 16.914L33.1433 19.631C33.7103 20.101 33.7103 20.967 33.1433 21.437L26.8533 26.67C26.4153 27.031 25.7843 27.031 25.3493 26.667L19.0773 21.44C18.5133 20.97 18.5133 20.104 19.0803 19.634L24.1573 15.417L25.3673 14.413L29.7923 10.736L33.3073 7.81698L35.2773 6.17798C36.8013 4.91198 39.0093 4.91198 40.5303 6.17798L44.7913 9.71598C46.4003 11.055 47.3343 13.04 47.3343 15.137V25.94L47.3373 25.941Z" fill="black"/>
</g>
<defs>
<clipPath id="clip0_3102_960">
<rect width="217" height="50" fill="white"/>
</clipPath>
</defs>
</svg>
