<svg width="24" height="24" viewBox="0 0 24 24" fill="none" xmlns="http://www.w3.org/2000/svg">
<path d="M18.02 8C17.75 8 17.52 8.09 17.32 8.29L12.01 13.6L6.7 8.29C6.52 8.11 6.29 8.02 6.01 8.02C5.73 8.02 5.5 8.11 5.3 8.29C5.1 8.49 5 8.73 5 9C5 9.27 5.1 9.51 5.3 9.71L11.31 15.72C11.41 15.82 11.52 15.89 11.63 15.93C11.74 15.97 11.87 15.99 12.01 15.99C12.14 15.99 12.27 15.97 12.39 15.93C12.51 15.89 12.61 15.82 12.71 15.72L18.75 9.69C18.95 9.49 19.05 9.26 19.04 8.99C19.04 8.72 18.93 8.49 18.73 8.29C18.53 8.11 18.3 8.01 18.03 8H18.02Z" fill="#141414"/>
</svg>
