<svg width="24" height="24" viewBox="0 0 24 24" fill="none" xmlns="http://www.w3.org/2000/svg">
<path d="M13.595 18.655C13.4545 18.5144 13.3756 18.3237 13.3756 18.125C13.3756 17.9262 13.4545 17.7356 13.595 17.595L18.565 12.625L4.12499 12.625C3.92608 12.625 3.73531 12.546 3.59466 12.4053C3.45401 12.2647 3.37499 12.0739 3.37499 11.875C3.37499 11.6761 3.45401 11.4853 3.59466 11.3447C3.73531 11.204 3.92608 11.125 4.12499 11.125L18.565 11.125L13.595 6.15499C13.4963 6.06332 13.4241 5.94672 13.3861 5.81747C13.3481 5.68822 13.3456 5.55111 13.379 5.42058C13.4124 5.29006 13.4803 5.17095 13.5757 5.07581C13.6711 4.98067 13.7904 4.91302 13.921 4.87999C14.0514 4.84657 14.1883 4.8489 14.3175 4.88674C14.4467 4.92457 14.5632 4.99651 14.655 5.09499L20.905 11.345C21.0454 11.4856 21.1243 11.6762 21.1243 11.875C21.1243 12.0737 21.0454 12.2644 20.905 12.405L14.655 18.655C14.5144 18.7954 14.3237 18.8743 14.125 18.8743C13.9262 18.8743 13.7356 18.7954 13.595 18.655Z" fill="white"/>
</svg>
