<svg width="500" height="500" viewBox="0 0 500 500" fill="none" xmlns="http://www.w3.org/2000/svg">
<g clip-path="url(#clip0_295_46885)">
<rect width="500" height="500" fill="#EEEFFF"/>
<path d="M-212.9 286.811L267.737 -193.902" stroke="#4353FF"/>
<path d="M-164.775 331.55L315.862 -149.162" stroke="#4353FF"/>
<path d="M-116.648 376.278L363.988 -104.436" stroke="#4353FF"/>
<path d="M-68.5234 421.005L412.112 -59.707" stroke="#4353FF"/>
<path d="M-20.4023 465.738L460.235 -14.9727" stroke="#4353FF"/>
<path d="M27.7227 510.475L508.359 29.7617" stroke="#4353FF"/>
<path d="M75.8438 555.2L556.48 74.4883" stroke="#4353FF"/>
<path d="M123.975 599.936L604.611 119.223" stroke="#4353FF"/>
<path d="M172.096 644.663L652.732 163.951" stroke="#4353FF"/>
<path d="M220.223 689.396L700.859 208.684" stroke="#4353FF"/>
<path d="M268.348 734.132L748.984 253.42" stroke="#4353FF"/>
<path d="M316.469 778.858L797.105 298.146" stroke="#4353FF"/>
<path d="M364.594 823.589L845.23 342.877" stroke="#4353FF"/>
<path d="M412.713 868.327L893.349 387.615" stroke="#4353FF"/>
<path d="M460.846 913.054L941.482 432.342" stroke="#4353FF"/>
<path d="M-188.834 309.178L291.803 -171.533" stroke="#4353FF"/>
<path d="M-140.715 353.914L339.922 -126.799" stroke="#4353FF"/>
<path d="M-92.5898 398.641L388.046 -82.0703" stroke="#4353FF"/>
<path d="M-44.4629 443.377L436.172 -37.3359" stroke="#4353FF"/>
<path d="M3.66406 488.103L484.301 7.39062" stroke="#4353FF"/>
<path d="M51.7832 532.836L532.419 52.125" stroke="#4353FF"/>
<path d="M99.9102 577.572L580.546 96.8594" stroke="#4353FF"/>
<path d="M148.037 622.298L628.673 141.586" stroke="#4353FF"/>
<path d="M196.156 667.028L676.792 186.316" stroke="#4353FF"/>
<path d="M244.281 711.767L724.917 231.055" stroke="#4353FF"/>
<path d="M292.406 756.497L773.042 275.781" stroke="#4353FF"/>
<path d="M340.535 801.224L821.171 320.512" stroke="#4353FF"/>
<path d="M388.654 845.956L869.29 365.244" stroke="#4353FF"/>
<path d="M436.779 890.693L917.415 409.98" stroke="#4353FF"/>
<path d="M484.904 935.419L965.544 454.707" stroke="#4353FF"/>
<rect x="122.106" y="171.106" width="243.868" height="154.482" rx="10.3503" fill="#D1D4FF"/>
<path d="M215.229 274.537C212.133 274.537 209.35 273.945 206.879 272.759C204.425 271.556 202.465 269.909 200.999 267.818C199.533 265.726 198.751 263.338 198.652 260.653H206.064C206.245 262.827 207.208 264.614 208.954 266.014C210.7 267.414 212.792 268.114 215.229 268.114C217.173 268.114 218.894 267.669 220.393 266.78C221.908 265.874 223.094 264.631 223.95 263.049C224.823 261.468 225.26 259.665 225.26 257.639C225.26 255.58 224.815 253.744 223.926 252.13C223.036 250.516 221.809 249.247 220.245 248.325C218.696 247.403 216.918 246.933 214.908 246.917C213.377 246.917 211.837 247.18 210.288 247.707C208.74 248.234 207.488 248.926 206.533 249.783L199.542 248.745L202.383 223.249H230.201V229.796H208.732L207.126 243.952H207.423C208.411 242.997 209.72 242.198 211.351 241.556C212.998 240.913 214.76 240.592 216.638 240.592C219.718 240.592 222.46 241.325 224.865 242.791C227.286 244.257 229.188 246.258 230.572 248.794C231.972 251.314 232.663 254.213 232.647 257.491C232.663 260.768 231.922 263.692 230.423 266.261C228.941 268.831 226.882 270.856 224.247 272.339C221.628 273.805 218.622 274.537 215.229 274.537ZM268.081 264.359V261.691C268.081 259.78 268.476 258.034 269.266 256.453C270.073 254.855 271.243 253.579 272.775 252.624C274.323 251.652 276.192 251.166 278.383 251.166C280.623 251.166 282.5 251.644 284.015 252.599C285.531 253.554 286.675 254.831 287.45 256.428C288.24 258.026 288.635 259.78 288.635 261.691V264.359C288.635 266.269 288.24 268.023 287.45 269.621C286.659 271.202 285.498 272.479 283.966 273.45C282.451 274.406 280.59 274.883 278.383 274.883C276.159 274.883 274.282 274.406 272.75 273.45C271.218 272.479 270.057 271.202 269.266 269.621C268.476 268.023 268.081 266.269 268.081 264.359ZM273.837 261.691V264.359C273.837 265.775 274.175 267.06 274.85 268.213C275.525 269.366 276.703 269.942 278.383 269.942C280.046 269.942 281.207 269.366 281.866 268.213C282.525 267.06 282.854 265.775 282.854 264.359V261.691C282.854 260.274 282.533 258.99 281.891 257.837C281.265 256.684 280.096 256.107 278.383 256.107C276.736 256.107 275.566 256.684 274.874 257.837C274.183 258.99 273.837 260.274 273.837 261.691ZM242.634 235.404V232.736C242.634 230.825 243.029 229.071 243.82 227.474C244.627 225.876 245.796 224.6 247.328 223.644C248.876 222.689 250.746 222.211 252.936 222.211C255.176 222.211 257.054 222.689 258.569 223.644C260.084 224.6 261.229 225.876 262.003 227.474C262.777 229.071 263.164 230.825 263.164 232.736V235.404C263.164 237.315 262.769 239.069 261.978 240.666C261.204 242.247 260.051 243.524 258.52 244.496C257.004 245.451 255.143 245.929 252.936 245.929C250.696 245.929 248.81 245.451 247.279 244.496C245.763 243.524 244.61 242.247 243.82 240.666C243.029 239.069 242.634 237.315 242.634 235.404ZM248.415 232.736V235.404C248.415 236.821 248.744 238.105 249.403 239.258C250.079 240.411 251.256 240.988 252.936 240.988C254.583 240.988 255.736 240.411 256.395 239.258C257.07 238.105 257.408 236.821 257.408 235.404V232.736C257.408 231.319 257.087 230.035 256.444 228.882C255.802 227.729 254.633 227.152 252.936 227.152C251.289 227.152 250.12 227.729 249.428 228.882C248.753 230.035 248.415 231.319 248.415 232.736ZM244.981 273.846L279.766 223.249H285.671L250.886 273.846H244.981Z" fill="#4353FF"/>
<rect x="122.106" y="171.106" width="243.868" height="154.482" rx="10.3503" stroke="#4353FF" stroke-width="6.21164"/>
</g>
<defs>
<clipPath id="clip0_295_46885">
<rect width="500" height="500" fill="white"/>
</clipPath>
</defs>
</svg>
