<svg width="14" height="12" viewBox="0 0 14 12" fill="none" xmlns="http://www.w3.org/2000/svg">
<path d="M11.5375 8.56477C11.3808 8.56467 11.2305 8.50235 11.1196 8.3915C11.0088 8.28065 10.9464 8.13033 10.9463 7.97357L10.9463 2.42964L2.89259 10.4834C2.78165 10.5943 2.63118 10.6567 2.47429 10.6567C2.31739 10.6567 2.16693 10.5943 2.05598 10.4834C1.94504 10.3725 1.88272 10.222 1.88272 10.0651C1.88272 9.90819 1.94504 9.75772 2.05598 9.64678L10.1097 1.59304L4.56581 1.59304C4.45962 1.59697 4.35433 1.57219 4.26104 1.5213C4.16775 1.47042 4.08992 1.39531 4.03573 1.3039C3.98155 1.21249 3.95302 1.10816 3.95316 1.00189C3.9533 0.895627 3.98209 0.791367 4.03651 0.700097C4.09059 0.608743 4.16829 0.533648 4.26143 0.48271C4.35457 0.431772 4.45971 0.406873 4.56581 0.41063L11.5375 0.41063C11.6943 0.410728 11.8446 0.473046 11.9555 0.583897C12.0663 0.694748 12.1286 0.845066 12.1287 1.00183L12.1287 7.97357C12.1286 8.13033 12.0663 8.28065 11.9555 8.3915C11.8446 8.50235 11.6943 8.56467 11.5375 8.56477Z" fill="white"/>
</svg>
