<svg width="64" height="64" viewBox="0 0 64 64" fill="none" xmlns="http://www.w3.org/2000/svg">
<path d="M0 12C0 5.37258 5.37258 0 12 0H52C58.6274 0 64 5.37258 64 12V52C64 58.6274 58.6274 64 52 64H12C5.37258 64 0 58.6274 0 52V12Z" fill="#0E0E0E"/>
<path fill-rule="evenodd" clip-rule="evenodd" d="M18.6911 24.9997C17.7076 25.5355 17.7066 26.9473 18.6894 27.4846L30.9692 34.1977C31.6052 34.5454 32.3747 34.5446 33.01 34.1955L45.2245 27.4843C46.2042 26.946 46.2026 25.5378 45.2216 25.0017L32.9905 18.3186C32.3569 17.9724 31.5908 17.9719 30.9567 18.3173L18.6911 24.9997ZM22.7785 25.9966C22.5818 26.1038 22.5816 26.3861 22.7781 26.4936L31.6464 31.3416C31.8584 31.4575 32.1149 31.4573 32.3267 31.3409L41.1445 26.4961C41.3404 26.3884 41.3401 26.1067 41.1439 25.9995L32.3108 21.1731C32.0996 21.0577 31.8442 21.0575 31.6329 21.1727L22.7785 25.9966Z" fill="white"/>
<path fill-rule="evenodd" clip-rule="evenodd" d="M45.7059 31.6025C46.0797 32.2891 45.8261 33.1487 45.1395 33.5225L32.6609 40.3163C32.2392 40.5459 31.7298 40.5461 31.3079 40.3166L18.8298 33.5308C18.1431 33.1574 17.8891 32.2979 18.2626 31.6112C18.636 30.9244 19.4955 30.6705 20.1822 31.0439L31.7808 37.3514C31.9073 37.4202 32.0601 37.4202 32.1867 37.3513L43.7859 31.0362C44.4725 30.6624 45.3321 30.916 45.7059 31.6025Z" fill="white"/>
<path fill-rule="evenodd" clip-rule="evenodd" d="M45.7059 37.1727C46.0797 37.8593 45.8261 38.7189 45.1395 39.0927L32.6609 45.8865C32.2392 46.1161 31.7298 46.1162 31.3079 45.8868L18.8298 39.101C18.1431 38.7276 17.8891 37.8681 18.2626 37.1814C18.636 36.4946 19.4955 36.2407 20.1822 36.6141L31.7808 42.9216C31.9073 42.9904 32.0601 42.9904 32.1867 42.9215L43.7859 36.6064C44.4725 36.2326 45.3321 36.4862 45.7059 37.1727Z" fill="white"/>
</svg>
