<svg width="64" height="64" viewBox="0 0 64 64" fill="none" xmlns="http://www.w3.org/2000/svg">
<path d="M0 12C0 5.37258 5.37258 0 12 0H52C58.6274 0 64 5.37258 64 12V52C64 58.6274 58.6274 64 52 64H12C5.37258 64 0 58.6274 0 52V12Z" fill="#0E0E0E"/>
<path fill-rule="evenodd" clip-rule="evenodd" d="M29.3138 28.4635C28.658 28.4635 28.0808 28.8874 27.8968 29.5041L24.8575 38.8461C24.5811 39.7722 25.2899 40.6988 26.2746 40.6988H30.4674C31.2828 40.6988 31.9438 41.3466 31.9438 42.1455C31.9438 42.9445 31.2828 43.5922 30.4674 43.5922H26.2746C23.3204 43.5922 21.1942 40.8123 22.0234 38.034L25.0626 28.692C25.6149 26.8417 27.3465 25.5701 29.3138 25.5701H34.7384C36.7134 25.5701 38.4498 26.8514 38.9954 28.7114L41.9822 38.0534C42.7958 40.8273 40.6708 43.5922 37.7253 43.5922H36.3786C35.5632 43.5922 34.9022 42.9445 34.9022 42.1455C34.9022 41.3466 35.5632 40.6988 36.3786 40.6988H37.7253C38.7071 40.6988 39.4155 39.7772 39.1443 38.8526L36.1574 29.5106C35.9756 28.8906 35.3968 28.4635 34.7384 28.4635H29.3138Z" fill="white"/>
<path d="M30.5489 36.344C30.5489 35.5426 31.1985 34.8929 31.9999 34.8929C32.8013 34.8929 33.451 35.5426 33.451 36.344V45.0503C33.451 45.8517 32.8013 46.5013 31.9999 46.5013C31.1985 46.5013 30.5489 45.8517 30.5489 45.0503V36.344Z" fill="white"/>
<path d="M35.6276 21.129C35.6276 23.1325 34.0034 24.7566 31.9999 24.7566C29.9964 24.7566 28.3723 23.1325 28.3723 21.129C28.3723 19.1255 29.9964 17.5013 31.9999 17.5013C34.0034 17.5013 35.6276 19.1255 35.6276 21.129Z" fill="white"/>
<path fill-rule="evenodd" clip-rule="evenodd" d="M31.9999 21.8545C32.4006 21.8545 32.7255 21.5297 32.7255 21.129C32.7255 20.7283 32.4006 20.4034 31.9999 20.4034C31.5992 20.4034 31.2744 20.7283 31.2744 21.129C31.2744 21.5297 31.5992 21.8545 31.9999 21.8545ZM31.9999 24.7566C34.0034 24.7566 35.6276 23.1325 35.6276 21.129C35.6276 19.1255 34.0034 17.5013 31.9999 17.5013C29.9964 17.5013 28.3723 19.1255 28.3723 21.129C28.3723 23.1325 29.9964 24.7566 31.9999 24.7566Z" fill="white"/>
<path d="M39.6179 20.0407C40.219 20.0407 40.7062 20.5279 40.7062 21.129C40.7062 21.73 40.219 22.2173 39.6179 22.2173H24.3819C23.7808 22.2173 23.2936 21.73 23.2936 21.129C23.2936 20.5279 23.7808 20.0407 24.3819 20.0407L39.6179 20.0407Z" fill="white"/>
</svg>
