<svg width="72" height="72" viewBox="0 0 72 72" fill="none" xmlns="http://www.w3.org/2000/svg">
<path d="M65.9174 0H6.07707C2.64349 0.468475 0 3.32275 0 6.78133V65.1411C0 68.9277 3.16314 72 7.06561 72H64.9298C68.8313 72 71.9954 68.9323 71.9954 65.1411V6.78133C71.9954 3.31813 69.3473 0.463854 65.9183 0H65.9174Z" fill="white"/>
<path d="M65.9174 0H6.07707C2.64349 0.468475 0.000923907 3.32275 0.000923907 6.78133V65.1411C0.000923907 68.9277 3.16406 72 7.06653 72H64.9307C68.8322 72 71.9963 68.9323 71.9963 65.1411V33.5731C71.7674 33.6516 71.5283 33.7191 71.2884 33.781C70.513 33.9741 69.7063 34.2033 68.9061 34.4583C65.3894 35.5726 61.9817 37.2553 58.7087 38.9481C55.3785 40.6769 52.1581 42.6506 49.2664 45.0521C44.7141 48.823 40.8541 53.5835 38.8456 59.1978C38.4137 60.411 37.2433 61.1669 36 61.1669C34.7567 61.1669 33.5863 60.4064 33.1544 59.1978C28.1185 45.1195 12.3434 38.6459 12.1874 38.5831C11.1471 38.1617 10.4549 37.2137 10.3561 36.1409C10.3515 36.0735 10.3515 36.0005 10.3561 35.9275C10.4549 34.8547 11.1471 33.9067 12.1874 33.4844C12.3434 33.4225 28.1231 26.9479 33.1544 12.865C33.5863 11.6518 34.7567 10.896 36 10.896C37.2433 10.896 38.4137 11.6564 38.8456 12.865C40.8172 18.3805 44.4021 22.7242 48.0443 25.9795C48.1532 26.0729 48.419 26.3131 48.4504 26.339C49.6365 27.3961 49.7722 29.1831 48.7209 30.3862C48.4707 30.6726 48.18 30.8916 47.8569 31.0579L47.6179 31.1679C46.598 31.6003 45.3759 31.4756 44.4704 30.7299C44.1843 30.4952 43.8982 30.2559 43.6176 30.0166C43.5502 29.9593 43.4247 29.8345 43.4247 29.8345C40.7609 27.3757 38.1285 24.3662 36.0009 20.8032C31.5576 28.2508 24.9452 33.3763 20.2729 36.1834C24.9396 38.9906 31.5576 43.8185 36.0009 51.267C36.0009 51.267 37.1039 49.5225 37.2553 49.3081C37.6762 48.6881 38.1192 48.0838 38.577 47.4906C39.4825 46.3189 40.4554 45.1935 41.4854 44.1262C43.3536 42.184 45.3925 40.4126 47.557 38.8141C50.1275 36.9125 52.8587 35.252 55.6729 33.7459C59.3197 31.7981 62.5253 30.3132 66.474 29.0639C67.3997 28.7719 68.8987 28.3247 69.8042 28.1002C71.0945 27.7823 72 26.6208 72 25.2828V6.78318C72 3.31998 69.3519 0.465702 65.9229 0.00184772L65.9174 0Z" fill="url(#paint0_linear_17001_107027)"/>
<defs>
<linearGradient id="paint0_linear_17001_107027" x1="3.90616" y1="70.5438" x2="68.2392" y2="1.37558" gradientUnits="userSpaceOnUse">
<stop stop-color="#00FFD6"/>
<stop offset="0.29" stop-color="#43ADC0"/>
<stop offset="0.58" stop-color="#2C52DA"/>
<stop offset="0.86" stop-color="#0D10AA"/>
</linearGradient>
</defs>
</svg>
