<svg width="64" height="64" viewBox="0 0 64 64" fill="none" xmlns="http://www.w3.org/2000/svg">
<path d="M0 12C0 5.37258 5.37258 0 12 0H52C58.6274 0 64 5.37258 64 12V52C64 58.6274 58.6274 64 52 64H12C5.37258 64 0 58.6274 0 52V12Z" fill="#0E0E0E"/>
<path d="M39.1024 46H43.5668C44.9111 46 46.0012 44.9098 46.0012 43.5654V39.1011C46.0012 37.7567 44.9111 36.6665 43.5668 36.6665H39.7111C38.0305 36.6665 36.6679 35.3039 36.6679 33.6233V29.7676C36.6679 28.4233 35.5776 27.3331 34.2333 27.3331H29.7689C28.4246 27.3331 27.3344 28.4233 27.3344 29.7676V34.232C27.3344 35.5763 28.4246 36.6665 29.7689 36.6665H33.6247C35.3053 36.6665 36.6679 38.0291 36.6679 39.7097V43.5654C36.6679 44.9098 37.7581 46 39.1024 46Z" fill="white"/>
<path d="M24.9 18.0001H20.4356C19.0913 18.0001 18.0011 19.0903 18.0011 20.4347V24.899C18.0011 26.2433 19.0913 27.3336 20.4356 27.3336H24.2913C25.9719 27.3336 27.3345 28.6962 27.3345 30.3768L27.3344 34.232C27.3344 35.5763 28.4246 36.6665 29.7689 36.6665L34.2335 36.667C35.5778 36.667 36.668 35.5768 36.668 34.2325L36.6679 29.7676C36.6679 28.4233 35.5776 27.3331 34.2333 27.3331L30.3777 27.3336C28.6971 27.3336 27.3345 25.971 27.3345 24.2904V20.4347C27.3345 19.0903 26.2443 18.0001 24.9 18.0001Z" fill="white"/>
<path d="M18.001 39.1011V43.5655C18.001 44.9098 19.0912 45.9993 20.4355 45.9993H24.8999C26.2442 45.9993 27.3344 44.9091 27.3344 43.5647V39.709C27.3344 38.0284 28.697 36.6658 30.3776 36.6658L34.2335 36.667C35.5778 36.667 36.668 35.5768 36.668 34.2325L36.6679 29.7676C36.6679 28.4233 35.5776 27.3331 34.2333 27.3331H29.7689C28.4246 27.3331 27.3344 28.4233 27.3344 29.7676L27.3344 33.6226C27.3344 35.3032 25.9718 36.6658 24.2912 36.6658H20.4355C19.0912 36.6666 18.001 37.756 18.001 39.1011Z" fill="white"/>
<path d="M46.0012 24.8989V20.4346C46.0012 19.0902 44.9111 18 43.5668 18H39.1024C37.7581 18 36.6679 19.0902 36.6679 20.4346V24.2903C36.6679 25.9709 35.3053 27.3335 33.6247 27.3335L29.7689 27.3331C28.4246 27.3331 27.3344 28.4233 27.3344 29.7676V34.232C27.3344 35.5763 28.4246 36.6665 29.7689 36.6665L34.2335 36.667C35.5778 36.667 36.668 35.5768 36.668 34.2325L36.6679 30.3766C36.6679 28.696 38.0305 27.3335 39.7111 27.3335H43.5668C44.9111 27.3335 46.0012 26.2432 46.0012 24.8989Z" fill="white"/>
</svg>
