<svg width="64" height="64" viewBox="0 0 64 64" fill="none" xmlns="http://www.w3.org/2000/svg">
<path d="M0 12C0 5.37258 5.37258 0 12 0H52C58.6274 0 64 5.37258 64 12V52C64 58.6274 58.6274 64 52 64H12C5.37258 64 0 58.6274 0 52V12Z" fill="#0E0E0E"/>
<path d="M46.92 28.8163L41.4289 19.3085C41.3186 19.1158 41.1148 18.9985 40.8928 18.9985H23.1086C22.8866 18.9985 22.6828 19.1158 22.5725 19.3085L17.0814 28.8163C16.9404 29.0592 16.9823 29.3664 17.1805 29.5646L18.4832 30.8672C18.7708 31.1548 19.2552 31.092 19.4577 30.7388L24.3093 22.3367C24.4196 22.1441 24.6234 22.0268 24.8454 22.0268H39.1518C39.3738 22.0268 39.5776 22.1427 39.6879 22.3353L43.4366 28.8316C43.6753 29.2449 43.3765 29.7615 42.899 29.7615H40.8607C40.6387 29.7615 40.4348 29.6442 40.3231 29.4515L37.9483 25.3399C37.838 25.1472 37.6342 25.0299 37.4122 25.0299H26.5808C26.3588 25.0299 26.155 25.1472 26.0447 25.3399L21.4905 33.2267C21.3495 33.4696 21.3913 33.7768 21.5896 33.975L31.5609 43.9464C31.8024 44.1879 32.1948 44.1879 32.4377 43.9464L40.6149 35.7691C41.0059 35.3782 40.7294 34.7108 40.1765 34.7108H37.6453C37.4806 34.7108 37.3228 34.7764 37.2069 34.8923L32.4363 39.6616C32.1948 39.9031 31.8024 39.9031 31.5595 39.6616L25.3648 33.4668C25.1665 33.2686 25.126 32.9614 25.2657 32.7185L27.7759 28.3695C27.8862 28.1768 28.0915 28.0596 28.3121 28.0596H35.6809C35.9029 28.0596 36.1068 28.1768 36.2171 28.3695L37.965 31.3964C38.0753 31.589 38.2792 31.7063 38.5012 31.7063H44.4167C44.5814 31.7063 44.7392 31.6407 44.8551 31.5248L46.8166 29.5632C47.0149 29.365 47.0554 29.0578 46.9158 28.8149H46.9186L46.92 28.8163Z" fill="white"/>
<path d="M30.1789 30.9891C29.9569 30.9891 29.753 31.1064 29.6428 31.2991L28.9377 32.5193C28.7967 32.7622 28.8386 33.0694 29.0368 33.2676L31.5639 35.7947C31.8054 36.0362 32.1977 36.0362 32.4406 35.7947L34.9677 33.2676C35.1659 33.0694 35.2064 32.7622 35.0668 32.5193L34.3617 31.2991C34.2514 31.1064 34.0462 30.9891 33.8256 30.9891H30.1789Z" fill="white"/>
</svg>
