<svg width="64" height="64" viewBox="0 0 64 64" fill="none" xmlns="http://www.w3.org/2000/svg">
<path d="M0 12C0 5.37258 5.37258 0 12 0H52C58.6274 0 64 5.37258 64 12V52C64 58.6274 58.6274 64 52 64H12C5.37258 64 0 58.6274 0 52V12Z" fill="#0E0E0E"/>
<path d="M32.029 40.7865L32.0508 46.7796C32.0508 46.9716 32.2758 47.0704 32.4173 46.9423L45.4274 35.0752C45.4728 35.0331 45.5 34.9746 45.5 34.9106V23.6542C45.5 23.5317 45.402 23.4329 45.2804 23.4329H32.1923C32.0708 23.4329 31.9728 23.3341 31.9728 23.2134L31.951 17.2204C31.951 17.0284 31.726 16.9296 31.5845 17.0577L18.5726 28.9248C18.5272 28.9669 18.5 29.0254 18.5 29.0894V40.3458C18.5 40.4683 18.598 40.5671 18.7196 40.5671H31.8077C31.9292 40.5671 32.0272 40.6658 32.0272 40.7865H32.029ZM31.9782 25.9238L31.9909 29.6545C31.9909 29.7771 32.0889 29.874 32.2105 29.874H40.5228C40.7206 29.874 40.8167 30.1172 40.6752 30.2544L32.3956 38.2353C32.2558 38.3689 32.0254 38.2701 32.0254 38.0762L32.0127 34.3455C32.0127 34.2229 31.9147 34.126 31.7931 34.126H23.4808C23.2831 34.126 23.1869 33.8828 23.3284 33.7456L31.6081 25.7646C31.7478 25.6311 31.9782 25.7299 31.9782 25.9238Z" fill="white"/>
</svg>
