<svg width="64" height="64" viewBox="0 0 64 64" fill="none" xmlns="http://www.w3.org/2000/svg">
<path d="M0 12C0 5.37258 5.37258 0 12 0H52C58.6274 0 64 5.37258 64 12V52C64 58.6274 58.6274 64 52 64H12C5.37258 64 0 58.6274 0 52V12Z" fill="#0E0E0E"/>
<g clip-path="url(#clip0_2205_18900)">
<path d="M36.1353 45.9533L28.2289 46.0351C28.0225 46.0351 27.8411 45.8921 27.8003 45.688C27.6053 44.7245 27.0022 42.0036 26.1293 40.4323C26.1247 40.4211 26.1179 40.412 26.1134 40.4029C25.2178 38.7092 24.4219 37.5822 23.9299 36.9564C23.6442 36.5936 23.1794 36.4235 22.7305 36.5235C24.1748 36.1539 25.9502 35.6913 26.7755 35.4373C31.478 33.9907 33.2964 34.3648 34.5889 38.1944C35.6976 41.4821 36.3279 44.3118 36.557 45.4341C36.6114 45.7017 36.4095 45.9511 36.1353 45.9556V45.9533Z" fill="white"/>
<path d="M40.3637 37.9181C39.8832 38.1879 39.5136 38.4849 39.3389 38.8001C38.6043 40.1357 38.0534 41.242 37.677 42.0448C37.457 42.5118 36.7745 42.4438 36.6476 41.9473C36.5955 41.7432 36.541 41.5278 36.4843 41.3033C36.3869 40.8544 36.5547 40.3896 36.9175 40.1038C37.5433 39.6119 38.6701 38.816 40.3637 37.9204V37.9181Z" fill="white"/>
<path d="M45.9211 27.8966L46.0026 35.803C46.0026 36.0093 45.8598 36.1906 45.6558 36.2314C44.6921 36.4265 41.9713 37.0296 40.4 37.9025C40.3886 37.907 40.3795 37.9138 40.3706 37.9184C38.6768 38.814 37.55 39.6098 36.9242 40.1019C36.5614 40.3875 36.3913 40.8524 36.491 41.3013C36.1214 39.857 35.6589 38.0817 35.405 37.2564C33.9584 32.5538 34.3325 30.7353 38.1621 29.4429C41.4498 28.3342 44.2794 27.7039 45.4019 27.4748C45.6694 27.4204 45.9188 27.6222 45.9234 27.8966H45.9211Z" fill="white"/>
<path d="M27.8642 18.1174L35.7706 18.0358C35.9769 18.0335 36.1584 18.1786 36.1991 18.3827C36.3941 19.3463 36.9973 22.0672 37.8702 23.6385C37.8748 23.6498 37.8816 23.6589 37.886 23.6679C38.7816 25.3617 39.5775 26.4886 40.0694 27.1144C40.3552 27.4771 40.82 27.6472 41.2689 27.5474C39.8246 27.917 38.0492 28.3796 37.2239 28.6335C32.5214 30.0801 30.703 29.706 29.4106 25.8764C28.3018 22.5887 27.6715 19.759 27.4425 18.6366C27.3881 18.3691 27.5899 18.1197 27.8642 18.1152V18.1174Z" fill="white"/>
<path d="M18.0817 36.1743L18 28.268C17.9978 28.0617 18.1429 27.8803 18.3469 27.8395C19.3106 27.6445 22.0314 27.0414 23.6027 26.1685C23.6141 26.1639 23.6231 26.1571 23.6322 26.1526C25.3259 25.257 26.4528 24.4611 27.0786 23.9691C27.4414 23.6834 27.6114 23.2186 27.5117 22.7697C27.8813 24.214 28.3438 25.9893 28.5977 26.8147C30.0443 31.5172 29.6702 33.3356 25.8406 34.628C22.5529 35.7368 19.7232 36.367 18.6009 36.5961C18.3333 36.6505 18.0839 36.4487 18.0794 36.1743H18.0817Z" fill="white"/>
<path d="M26.1249 40.3474C25.8551 39.8668 25.5581 39.4972 25.2407 39.3226C23.9052 38.5879 22.7964 38.0393 21.9938 37.6629C21.5267 37.4429 21.5925 36.7604 22.0913 36.6335C22.2953 36.5814 22.5107 36.5247 22.7352 36.468C23.1841 36.3682 23.649 36.5383 23.9347 36.9011C24.4267 37.5269 25.2248 38.6515 26.1227 40.3451H26.1249V40.3474Z" fill="white"/>
<path d="M23.6328 26.1556C24.1135 25.8858 24.4831 25.5887 24.6577 25.2713C25.3923 23.9358 25.941 22.8271 26.3174 22.0244C26.5373 21.5573 27.2198 21.6231 27.3468 22.1219C27.3989 22.326 27.4556 22.5414 27.5123 22.7658C27.6121 23.2148 27.442 23.6796 27.0792 23.9653C26.4534 24.4573 25.3288 25.2554 23.6351 26.1533L23.6328 26.1556Z" fill="white"/>
<path d="M37.8789 23.6686C38.1488 24.1493 38.4457 24.5189 38.7632 24.6934C40.0986 25.4281 41.2074 25.9745 42.01 26.3531C42.477 26.5731 42.4114 27.2556 41.9125 27.3825C41.7084 27.4347 41.4932 27.4907 41.2689 27.5474C40.82 27.6472 40.3552 27.4771 40.0694 27.1144C39.5773 26.4886 38.7789 25.3646 37.8812 23.6709H37.8789V23.6686Z" fill="white"/>
</g>
<defs>
<clipPath id="clip0_2205_18900">
<rect width="28" height="28" fill="white" transform="translate(18 18.0358)"/>
</clipPath>
</defs>
</svg>
