<svg width="64" height="64" viewBox="0 0 64 64" fill="none" xmlns="http://www.w3.org/2000/svg">
<path d="M0 12C0 5.37258 5.37258 0 12 0H52C58.6274 0 64 5.37258 64 12V52C64 58.6274 58.6274 64 52 64H12C5.37258 64 0 58.6274 0 52V12Z" fill="#0E0E0E"/>
<g clip-path="url(#clip0_2205_19011)">
<path d="M45.6402 30.8443L44.7824 29.908C44.7687 29.8923 44.7552 29.8765 44.7411 29.8611L37.1811 21.6178C36.2129 20.5691 34.6503 20.5799 33.7011 21.6378L30.0654 25.657L28.2274 23.6526L28.2291 23.6508L27.8189 23.2035C27.7479 23.126 27.6687 23.0575 27.5823 23.0021C26.6899 22.4299 25.6216 22.5564 24.8656 23.3215C24.8514 23.336 24.8375 23.3507 24.824 23.3659L18.7051 30.1773C17.7565 31.2414 17.7663 32.9593 18.7268 34.0069L26.4763 42.4584C26.9563 42.9783 27.5825 43.2378 28.2081 43.2378C28.8441 43.2378 29.4794 42.9696 29.9597 42.4345L31.9828 40.1799C32.9439 41.2299 33.6312 41.9881 33.7815 42.1712C33.8096 42.2095 33.8395 42.2459 33.8712 42.2806L34.1373 42.5709C34.185 42.6229 34.2694 42.6998 34.3248 42.7414C34.7203 43.0384 35.1732 43.1862 35.6237 43.1862C36.1124 43.1862 36.598 43.0123 37.0042 42.6664C37.0457 42.6311 37.085 42.5928 37.122 42.5519L42.484 36.6266C42.9588 36.1019 42.9578 35.2536 42.4817 34.7303C42.0038 34.2049 41.2289 34.2061 40.7522 34.7327L35.6195 40.4046L35.5916 40.3742L35.5911 40.3747C35.229 39.9437 33.8306 38.382 27.852 31.9247L28.9771 30.6684L35.4367 23.5274C35.4421 23.5214 35.4552 23.5183 35.4636 23.5274L39.6616 28.1056L39.6617 28.1055L43.0432 31.7854C43.0456 31.7879 43.048 31.7902 43.0503 31.7927L43.9255 32.7454C44.4047 33.2671 45.1784 33.2612 45.651 32.7322C46.1204 32.2067 46.1156 31.3631 45.6402 30.8442V30.8443ZM30.2475 38.2901L28.2207 40.5486C28.2152 40.5546 28.2019 40.5578 28.1935 40.5487L20.4471 32.1005C20.4396 32.0923 20.4368 32.0711 20.4463 32.0605L24.9848 27.0083L24.0341 29.1982C23.5576 30.3003 23.8353 31.5531 24.7062 32.2854L25.3287 32.9643C26.7682 34.5181 28.6329 36.5357 30.2474 38.2901H30.2475Z" fill="white"/>
</g>
<defs>
<clipPath id="clip0_2205_19011">
<rect width="28" height="22.4" fill="white" transform="translate(18 20.8376)"/>
</clipPath>
</defs>
</svg>
