<svg width="64" height="64" viewBox="0 0 64 64" fill="none" xmlns="http://www.w3.org/2000/svg">
<path d="M0 12C0 5.37258 5.37258 0 12 0H52C58.6274 0 64 5.37258 64 12V52C64 58.6274 58.6274 64 52 64H12C5.37258 64 0 58.6274 0 52V12Z" fill="#0E0E0E"/>
<path fill-rule="evenodd" clip-rule="evenodd" d="M20.7998 29.8296C20.7998 27.0156 23.1926 24.7344 26.1443 24.7344H32.0586C35.0102 24.7344 37.403 27.0156 37.403 29.8296V32.3639C37.403 33.0675 36.8048 33.6378 36.0669 33.6378C35.329 33.6378 34.7308 33.0675 34.7308 32.3639V29.8296C34.7308 28.4226 33.5344 27.282 32.0586 27.282H26.1443C24.6684 27.282 23.472 28.4226 23.472 29.8296V40.9048C23.472 42.3118 24.6684 43.4524 26.1443 43.4524H32.0586C33.5344 43.4524 34.7308 42.3118 34.7308 40.9048V38.5403C34.7308 37.8368 35.329 37.2665 36.0669 37.2665C36.8048 37.2665 37.403 37.8368 37.403 38.5403V40.9048C37.403 43.7188 35.0102 46 32.0586 46H26.1443C23.1926 46 20.7998 43.7188 20.7998 40.9048V29.8296Z" fill="white"/>
<path fill-rule="evenodd" clip-rule="evenodd" d="M43.1998 23.0952C43.1998 20.2812 40.807 18 37.8553 18H31.4832C28.5316 18 26.1388 20.2812 26.1388 23.0952V24.9789C26.1388 25.6824 26.737 26.2527 27.4749 26.2527C28.2128 26.2527 28.811 25.6824 28.811 24.9789V23.0952C28.811 21.6882 30.0074 20.5476 31.4832 20.5476H37.8553C39.3312 20.5476 40.5276 21.6882 40.5276 23.0952V34.1704C40.5276 35.5774 39.3312 36.718 37.8553 36.718H31.4689C29.9875 36.718 28.7888 35.569 28.7967 34.1567L28.811 31.6258C28.815 30.9223 28.22 30.3489 27.4821 30.3452C26.7442 30.3414 26.1428 30.9086 26.1388 31.6121L26.1245 34.143C26.1086 36.9677 28.506 39.2656 31.4689 39.2656H37.8553C40.807 39.2656 43.1998 36.9844 43.1998 34.1704V23.0952Z" fill="white"/>
</svg>
