<svg width="64" height="64" viewBox="0 0 64 64" fill="none" xmlns="http://www.w3.org/2000/svg">
<path d="M0 12C0 5.37258 5.37258 0 12 0H52C58.6274 0 64 5.37258 64 12V52C64 58.6274 58.6274 64 52 64H12C5.37258 64 0 58.6274 0 52V12Z" fill="#0E0E0E"/>
<g clip-path="url(#clip0_2205_18920)">
<path d="M37.7758 29.1572L35.4729 26.8636C35.2692 26.6608 34.9398 26.6609 34.7363 26.8639L33.1196 28.4763C32.9151 28.6803 32.9152 29.0116 33.1199 29.2153L35.4204 31.5064C37.3054 33.3839 37.3054 36.4358 35.4204 38.31C33.5352 40.1873 30.4708 40.1873 28.589 38.31L22.7489 32.4937C20.8638 30.6162 20.8638 27.5643 22.7489 25.6903C24.4089 24.037 26.9761 23.8597 28.851 25.118C28.8678 25.0947 28.8779 25.0678 28.898 25.0444L30.828 23.1224C31.0431 22.9082 31.0078 22.5514 30.7566 22.3808C27.5804 20.2242 23.2085 20.5405 20.39 23.3443C19.9498 23.7827 19.5734 24.258 19.2542 24.7599C17.265 27.8989 17.6447 32.1122 20.39 34.8429L26.23 40.6592C29.4121 43.8282 34.5937 43.8282 37.7758 40.6592C38.72 39.7186 39.3854 38.601 39.7685 37.4131C40.6757 34.6019 40.0103 31.3893 37.7758 29.1606V29.1572Z" fill="white"/>
<path d="M44.7953 24.8339L44.7987 24.8305C44.4727 24.3017 44.0761 23.7997 43.6159 23.3413C40.4337 20.1722 35.2523 20.1722 32.0702 23.3413L26.2301 29.1576C25.3077 30.0762 24.67 31.1655 24.2816 32.3225C24.2761 32.3487 24.2725 32.3754 24.2725 32.403C24.2725 32.5162 24.32 32.6185 24.3969 32.6927L26.7527 35.0362C26.9113 35.194 27.1763 35.0797 27.1784 34.8561C27.19 33.6421 27.6569 32.4316 28.5857 31.5068L34.4256 25.6905C34.503 25.6135 34.5803 25.5433 34.6609 25.473C36.5561 23.8197 39.4492 23.8901 41.257 25.6905C43.1422 27.568 43.1422 30.62 41.257 32.4939C41.0643 32.6858 40.9829 32.9611 41.0351 33.2279C41.1907 34.0235 41.321 35.3039 41.0106 36.7423C40.9546 37.0018 41.2719 37.1743 41.4601 36.9869L43.6125 34.8431C46.3343 32.1325 46.7275 27.9663 44.7953 24.8339Z" fill="white"/>
</g>
<defs>
<clipPath id="clip0_2205_18920">
<rect width="28" height="22.0717" fill="white" transform="translate(18 20.9641)"/>
</clipPath>
</defs>
</svg>
