<svg width="64" height="64" viewBox="0 0 64 64" fill="none" xmlns="http://www.w3.org/2000/svg">
<path d="M0 12C0 5.37258 5.37258 0 12 0H52C58.6274 0 64 5.37258 64 12V52C64 58.6274 58.6274 64 52 64H12C5.37258 64 0 58.6274 0 52V12Z" fill="#0E0E0E"/>
<path d="M45.5481 26.7299L39.4514 20.6333C37.5332 18.715 34.1727 18.715 32.2545 20.6333L31.8827 21.005L31.1987 20.3805C29.1615 18.5217 26.0686 18.492 24.0166 20.3061C21.1913 22.7894 19.3772 24.4697 18.604 25.3172C16.5222 27.5626 17.0575 30.5068 17.0724 30.6258C17.2062 31.3395 17.8307 31.8302 18.5296 31.8302C18.6188 31.8302 18.7081 31.8302 18.7973 31.8005C19.6003 31.6518 20.1356 30.8934 20.0017 30.0756C20.0017 30.0607 19.749 28.4399 20.7898 27.2949C21.459 26.5514 23.3028 24.8563 25.9794 22.5068C26.9013 21.689 28.2842 21.7039 29.2062 22.5366L34.024 26.938C34.1727 27.0719 34.2024 27.2354 34.2024 27.3247C34.2024 27.4139 34.1875 27.5775 34.0388 27.7113C33.8455 27.9046 33.5333 27.9046 33.3251 27.7113L31.2879 25.912C29.9496 24.7373 27.9125 24.7968 26.6337 26.0607L23.7935 28.9603L21.0426 31.6518C19.4218 33.2428 19.3921 35.8451 20.9831 37.4659C21.7861 38.2837 22.8567 38.7001 23.9274 38.7001C24.0166 38.7001 24.1058 38.6852 24.2099 38.6703C24.3735 39.3989 24.7303 40.083 25.2657 40.6331C26.0686 41.451 27.1392 41.8673 28.2099 41.8673C28.2991 41.8673 28.3883 41.8525 28.4924 41.8376C28.656 42.5662 29.0128 43.2502 29.5482 43.8004C30.3214 44.5885 31.3474 45.0197 32.4478 45.0346H32.4924C33.5779 45.0346 34.6039 44.6182 35.3771 43.8599L39.4217 39.8896C39.4217 39.8896 39.4514 39.8302 39.4812 39.8004L45.6075 33.5997C47.496 31.6815 47.4514 28.6481 45.5481 26.7299ZM43.4663 31.622L36.8492 38.2688C36.8492 38.2688 36.8344 38.2986 36.8195 38.3135L33.2656 41.793C33.0426 42.0012 32.7898 42.1499 32.4626 42.1201C32.1652 42.1201 31.8678 42.0012 31.6597 41.7781C31.4515 41.5551 31.3325 41.2725 31.3325 40.9751C31.3325 40.6629 31.4515 40.3804 31.6745 40.1722L34.7823 37.1239C35.3623 36.5439 35.3771 35.6071 34.7972 35.0272C34.2173 34.4473 33.2805 34.4324 32.7006 35.0124L31.3028 36.3804L29.5928 38.0607L28.998 38.6406C28.7749 38.8488 28.5211 38.9677 28.195 38.9677C27.8827 38.9677 27.6002 38.8488 27.392 38.6257C27.1839 38.4027 27.0649 38.1201 27.0649 37.8227C27.0649 37.5254 27.1839 37.228 27.4069 37.0198L30.6039 33.8971C31.1838 33.3172 31.1987 32.3804 30.6188 31.8005C30.0389 31.2206 29.1021 31.2057 28.5221 31.7856L26.4404 33.8228L24.7303 35.5031C24.5222 35.7112 24.2396 35.8302 23.9274 35.8302C23.6151 35.8302 23.3326 35.7112 23.1244 35.4882C22.6783 35.0421 22.6932 34.3135 23.1393 33.8674L26.3511 30.715C26.3511 30.715 26.3809 30.6704 26.3958 30.6406L28.7601 28.2169C28.9088 28.0682 29.1615 28.0533 29.3251 28.202L31.3623 30.0012C32.7303 31.2206 34.7675 31.1759 36.1057 29.912C36.8046 29.2429 37.2061 28.3061 37.1912 27.3395C37.1912 26.373 36.76 25.4511 36.0463 24.7968L34.1132 23.0422L34.3808 22.7745C35.1838 21.9715 36.5667 21.9715 37.3697 22.7745L43.4663 28.8711C44.2247 29.6295 44.2247 30.8637 43.4663 31.622Z" fill="white"/>
</svg>
