<svg width="64" height="64" viewBox="0 0 64 64" fill="none" xmlns="http://www.w3.org/2000/svg">
<path d="M0 12C0 5.37258 5.37258 0 12 0H52C58.6274 0 64 5.37258 64 12V52C64 58.6274 58.6274 64 52 64H12C5.37258 64 0 58.6274 0 52V12Z" fill="#0E0E0E"/>
<path fill-rule="evenodd" clip-rule="evenodd" d="M32.7443 22.272C32.2105 21.8326 31.4462 21.8347 30.9147 22.277L21.8774 28.3497V43.5975C21.8774 44.3976 21.2386 45.0463 20.4507 45.0463C19.6627 45.0463 19.0239 44.3976 19.0239 43.5975L19.0239 28.3497C19.0239 27.4815 19.4073 26.659 20.0686 26.1087L29.1059 20.0359C30.6847 18.722 32.9554 18.7158 34.5412 20.021L43.6515 26.0711C44.3199 26.6212 44.7081 27.4481 44.7082 28.3217L44.7099 43.5704C44.71 44.3706 44.0713 45.0193 43.2833 45.0194C42.4954 45.0194 41.8565 44.3709 41.8564 43.5707L41.8547 28.322L32.7443 22.272Z" fill="white"/>
<path fill-rule="evenodd" clip-rule="evenodd" d="M33.2906 42.1327H43.2914V45.0303H33.2906V42.1327Z" fill="white"/>
<path d="M26.8256 36.3984C26.8256 35.5983 27.4644 34.9496 28.2524 34.9496H36.1412C36.9291 34.9496 37.5679 35.5983 37.5679 36.3984V43.5768C37.5679 44.377 36.9291 45.0256 36.1412 45.0256H28.2524C27.4644 45.0256 26.8256 44.377 26.8256 43.5768V36.3984Z" fill="white"/>
<path fill-rule="evenodd" clip-rule="evenodd" d="M27.5864 30.547C27.5864 29.7468 28.2252 29.0982 29.0131 29.0982H34.7201C35.508 29.0982 36.1468 29.7468 36.1468 30.547C36.1468 31.3471 35.508 31.9957 34.7201 31.9957H29.0131C28.2252 31.9957 27.5864 31.3471 27.5864 30.547Z" fill="white"/>
</svg>
