<svg width="64" height="64" viewBox="0 0 64 64" fill="none" xmlns="http://www.w3.org/2000/svg">
<rect width="64" height="64" rx="12" fill="black"/>
<path d="M27.976 25.2132H38.7744V22.1206C38.7744 20.3971 37.3734 19 35.6451 19H27.9537C22.4564 19 18 23.444 18 28.9259V36.6029C18 38.323 19.3975 39.7166 21.1223 39.7166H24.2317V28.9482C24.2317 26.8853 25.9085 25.2132 27.9771 25.2132H27.976Z" fill="white"/>
<path d="M41.8753 25.2123H38.7741V35.9807C38.7741 38.0436 37.0974 39.7156 35.0287 39.7156H24.2302V42.8164C24.2302 44.5364 25.6277 45.93 27.3526 45.93H35.051C40.5482 45.93 45.0047 41.486 45.0047 36.0041V28.3341C45.0047 26.6105 43.6037 25.2135 41.8753 25.2135V25.2123Z" fill="white"/>
<path d="M31.5013 35.1021C29.0654 35.1021 27.0836 33.1258 27.0836 30.6967H28.8225C28.8225 32.1698 30.0241 33.368 31.5013 33.368C32.9786 33.368 34.1801 32.1698 34.1801 30.6967H35.9191C35.9191 33.1258 33.9372 35.1021 31.5013 35.1021Z" fill="white"/>
</svg>
