<svg width="135" height="68" viewBox="0 0 135 68" fill="none" xmlns="http://www.w3.org/2000/svg">
<g id="Roundel">
<path id="Vector" d="M71.0947 55.5355C70.5884 55.7595 70.054 55.8715 69.4915 55.8715C68.8447 55.9275 68.2259 55.6475 67.804 55.1715C67.4384 54.6115 67.2697 53.9395 67.3259 53.2955C67.3259 52.3715 67.5509 51.6715 67.9728 51.2235C68.4228 50.8315 69.0134 50.6355 69.604 50.6915C70.0541 50.6915 70.4759 50.7475 70.8978 50.8315L70.8416 51.6435C70.4759 51.5875 70.0822 51.5595 69.7165 51.5595C69.3509 51.5035 68.9853 51.6435 68.704 51.8955C68.4228 52.3155 68.3103 52.7915 68.3665 53.2955C68.3384 53.7155 68.4228 54.1355 68.5915 54.5275C68.8165 54.8635 69.2103 55.0315 69.604 55.0035C70.0259 54.9755 70.4478 54.9195 70.8416 54.7795L71.0947 55.5355Z" fill="white"/>
<path id="Vector_2" d="M71.5728 55.7875V50.7476H74.6946V51.6155H72.5571V52.7915H74.329V53.6315H72.5571V54.9195H74.6946V55.7875H71.5728Z" fill="white"/>
<path id="Vector_3" d="M77.9009 55.7868C77.5353 55.1149 77.2259 54.4989 76.9165 53.8549C76.6915 53.8549 76.4103 53.8549 76.2134 53.8549V55.8148H75.229V50.8029C75.7634 50.7469 76.2978 50.7189 76.804 50.6909C77.8446 50.6909 78.8009 50.9429 78.8009 52.2309C78.8571 52.8749 78.4634 53.4909 77.8446 53.6869C78.1259 54.2749 78.5759 55.0309 79.0259 55.7588L77.9009 55.7868ZM76.2415 53.0989C76.6071 53.1269 76.9446 53.0989 77.3103 53.0149C77.6759 52.9309 77.9009 52.5949 77.8446 52.2309C77.8446 51.6149 77.4228 51.5309 76.9165 51.5309C76.6915 51.5309 76.4384 51.5309 76.2415 51.5309V53.0989Z" fill="white"/>
<path id="Vector_4" d="M80.3478 55.7875V51.6155H78.9978V50.7476H82.7103V51.6155H81.3603V55.7875H80.3478Z" fill="white"/>
<path id="Vector_5" d="M83.0759 55.7875V50.7476H84.0603V55.7875H83.0759Z" fill="white"/>
<path id="Vector_6" d="M84.876 55.7875V50.7476H88.0822V51.6155H85.8604V52.8755H87.6885V53.7155H85.8604V55.7875H84.876Z" fill="white"/>
<path id="Vector_7" d="M88.5604 55.7875V50.7476H89.5448V55.7875H88.5604Z" fill="white"/>
<path id="Vector_8" d="M90.3604 55.7875V50.7476H93.5104V51.6155H91.3447V52.7915H93.1166V53.6315H91.3447V54.9195H93.5104V55.7875H90.3604Z" fill="white"/>
<path id="Vector_9" d="M94.0166 50.8036C94.551 50.7196 95.0572 50.6636 95.5916 50.6636C97.3072 50.6636 97.8979 51.5316 97.8979 53.2395C97.8979 54.9475 97.3072 55.8435 95.5916 55.8435C95.0572 55.8435 94.551 55.8155 94.0166 55.7595V50.8036ZM95.001 54.9755C95.226 54.9755 95.3104 54.9755 95.5072 54.9755C96.6322 54.9755 96.8854 54.4995 96.8854 53.2395C96.8854 52.0636 96.6041 51.5036 95.5072 51.5036C95.3385 51.5036 95.1697 51.5036 95.001 51.5036V54.9755Z" fill="white"/>
<path id="Vector_10" d="M67.8041 19.0237V12.6118H68.7603V19.0237H67.8041Z" fill="white"/>
<path id="Vector_11" d="M69.8009 18.128C70.3072 18.212 70.8134 18.268 71.3197 18.268C71.7978 18.324 72.304 18.184 72.6978 17.904C72.8666 17.736 72.9791 17.484 72.9791 17.232C72.9791 16.616 72.5853 16.392 71.4884 16.056C70.3915 15.7201 69.6603 15.2721 69.6603 14.1801C69.6603 13.6761 69.8853 13.2001 70.279 12.8921C70.7572 12.5841 71.3197 12.4161 71.8822 12.4721C72.4728 12.4721 73.0634 12.5561 73.6541 12.6681L73.5416 13.4521C73.0353 13.3681 72.5572 13.3121 72.0509 13.3121C71.6572 13.2841 71.2915 13.3681 70.954 13.5361C70.7572 13.6761 70.6447 13.9001 70.6447 14.1241C70.6447 14.7961 71.1509 14.9921 72.2197 15.3001C73.2884 15.6081 73.9634 16.056 73.9634 17.176C73.9916 17.708 73.7384 18.24 73.3165 18.576C72.7822 18.912 72.1634 19.08 71.5447 19.052C70.9259 19.052 70.3072 18.968 69.7165 18.856L69.8009 18.128Z" fill="white"/>
<path id="Vector_12" d="M74.3853 15.8323C74.3853 13.6763 75.229 12.5283 77.1696 12.5283C79.1103 12.5283 79.954 13.6763 79.954 15.8323C79.954 18.0162 79.1384 19.1362 77.1696 19.1362C75.2009 19.1362 74.3853 17.9882 74.3853 15.8323ZM78.9697 15.8323C78.9697 14.1243 78.4634 13.3683 77.1696 13.3683C75.8759 13.3683 75.3696 14.1243 75.3696 15.8323C75.3696 17.5403 75.8759 18.2962 77.1696 18.2962C78.4634 18.2962 78.9697 17.5123 78.9697 15.8323Z" fill="white"/>
<path id="Vector_13" d="M80.1791 19.0237L82.6822 12.6118H83.4697L80.9947 19.0237H80.1791Z" fill="white"/>
<path id="Vector_14" d="M84.0322 19.0237V12.6118H84.9885V19.0237H84.0322Z" fill="white"/>
<path id="Vector_15" d="M86.0854 19.0237V12.6118H89.9386V13.4798H87.0698V15.3278H89.4323V16.1678H87.0698V18.1837H89.9386V19.0517L86.0854 19.0237Z" fill="white"/>
<path id="Vector_16" d="M95.0292 18.6597C94.3823 18.9677 93.6792 19.1357 92.9761 19.1357C92.1604 19.1917 91.4011 18.8557 90.8948 18.2117C90.4448 17.4837 90.2479 16.6717 90.3042 15.8318C90.2479 14.9358 90.5011 14.0678 91.0073 13.3398C91.5698 12.7518 92.3573 12.4438 93.1729 12.5278C93.7354 12.5278 94.2979 12.5838 94.8323 12.7238L94.748 13.5358C94.2417 13.4518 93.7355 13.3958 93.2292 13.3958C92.6667 13.3398 92.1042 13.5638 91.7104 13.9838C91.3729 14.5438 91.2323 15.2158 91.2886 15.8598C91.2323 16.4758 91.3729 17.0917 91.6542 17.6517C91.9636 18.0997 92.4979 18.3517 93.0604 18.3237C93.6511 18.2957 94.2417 18.1837 94.8042 17.9317L95.0292 18.6597Z" fill="white"/>
<path id="Vector_17" d="M67.6915 29.4398V28.6838C69.4634 27.1438 70.7291 25.9398 70.7291 24.8758C70.7291 24.0918 70.1384 23.7838 69.4634 23.7838C68.9009 23.8118 68.3384 23.9238 67.8322 24.1198L67.5509 23.3638C68.1697 23.0838 68.8447 22.9438 69.5197 22.9438C70.8134 22.9438 71.6853 23.5878 71.6853 24.8478C71.6853 26.2478 70.279 27.4518 68.9009 28.5998H71.7697V29.4678H67.6353L67.6915 29.4398Z" fill="white"/>
<path id="Vector_18" d="M73.2603 29.4398C73.7666 27.4798 74.526 25.6038 75.5385 23.8678H72.3041V23.0278H76.5229V23.8118C75.5103 25.5758 74.751 27.4798 74.301 29.4398H73.2603Z" fill="white"/>
<path id="Vector_19" d="M77.0291 26.2195C77.0291 24.0635 77.4509 22.9155 79.3634 22.9155C81.2759 22.9155 81.6697 24.0635 81.6697 26.2195C81.6697 28.3755 81.2478 29.5234 79.3634 29.5234C77.4791 29.5234 77.0291 28.3755 77.0291 26.2195ZM80.7416 26.2195C80.7416 24.7075 80.6572 23.7555 79.3916 23.7555C78.1259 23.7555 78.0134 24.7075 78.0134 26.2195C78.0134 27.7315 78.0978 28.7115 79.3916 28.7115C80.6853 28.7115 80.7416 27.7595 80.7416 26.2195Z" fill="white"/>
<path id="Vector_20" d="M82.3728 26.2195C82.3728 24.0635 82.7947 22.9155 84.7072 22.9155C86.6197 22.9155 87.0135 24.0635 87.0135 26.2195C87.0135 28.3755 86.5916 29.5234 84.7072 29.5234C82.8228 29.5234 82.3728 28.3755 82.3728 26.2195ZM86.0853 26.2195C86.0853 24.7075 86.0009 23.7555 84.7353 23.7555C83.4697 23.7555 83.3572 24.7075 83.3572 26.2195C83.3572 27.7315 83.4416 28.7115 84.7353 28.7115C86.0291 28.7115 86.0853 27.7595 86.0853 26.2195Z" fill="white"/>
<path id="Vector_21" d="M88.701 29.4394V23.9795L87.4072 24.4835L87.126 23.8395L88.8697 22.9995H89.7416V29.4114L88.701 29.4394Z" fill="white"/>
<path id="Vector_22" d="M67.6353 37.6718V32.6318H68.3946V37.6718H67.6353Z" fill="white"/>
<path id="Vector_23" d="M71.3759 37.6714V35.2914C71.3759 34.8434 71.1509 34.6194 70.7572 34.6194C70.4478 34.6194 70.1666 34.7034 69.8853 34.8434V37.6714H69.1541V34.0594H69.6884L69.7447 34.3954C70.0541 34.1434 70.4478 34.0034 70.8416 33.9754C71.4603 33.9194 72.0228 34.3674 72.0791 34.9834C72.0791 35.0674 72.0791 35.1514 72.0791 35.2354V37.6714H71.3759Z" fill="white"/>
<path id="Vector_24" d="M72.9509 37.6721V34.6482H72.4165V34.1442L72.9509 34.1162V33.6962C72.9228 33.3882 73.0353 33.0802 73.2321 32.8282C73.4853 32.6322 73.8228 32.5202 74.1603 32.5482C74.329 32.5482 74.5259 32.5482 74.6946 32.5762L74.6665 33.1642C74.4696 33.1642 74.329 33.1642 74.1884 33.1642C74.0478 33.1642 73.879 33.1642 73.7946 33.2762C73.7103 33.4162 73.654 33.5842 73.6821 33.7522V34.0602H74.4696V34.6202H73.6821V37.6441L72.9509 37.6721Z" fill="white"/>
<path id="Vector_25" d="M76.2135 37.756C75.7916 37.784 75.3697 37.644 75.0604 37.364C74.4135 36.468 74.4135 35.292 75.0604 34.396C75.3697 34.116 75.7916 33.976 76.2135 34.004C76.6354 33.976 77.0572 34.116 77.3666 34.396C78.0135 35.292 78.0135 36.468 77.3666 37.364C77.0572 37.616 76.6354 37.784 76.2135 37.756ZM77.1135 35.852C77.1416 35.488 77.0572 35.152 76.8604 34.844C76.4947 34.508 75.9322 34.508 75.5666 34.844C75.3697 35.152 75.2854 35.488 75.3135 35.852C75.2854 36.216 75.3697 36.552 75.5666 36.86C75.7354 37.028 75.9604 37.14 76.2135 37.112C76.4666 37.112 76.6916 37.028 76.8604 36.86C77.0572 36.58 77.1416 36.216 77.1135 35.852Z" fill="white"/>
<path id="Vector_26" d="M78.3229 37.6717V34.0598H78.8573L78.9416 34.4798H78.9698C79.1948 34.1158 79.6166 33.9198 80.0385 33.9758C80.151 33.9758 80.2354 33.9758 80.3479 33.9758L80.2916 34.6198C80.151 34.5918 80.0104 34.5918 79.8698 34.5918C79.5604 34.5638 79.251 34.6758 78.9979 34.8717V37.6437L78.3229 37.6717Z" fill="white"/>
<path id="Vector_27" d="M84.9042 37.6715V35.2915C84.9042 34.8715 84.6792 34.6475 84.2854 34.6475C83.976 34.6475 83.6948 34.7315 83.4417 34.8995C83.4698 35.0395 83.4698 35.1795 83.4698 35.3195V37.6715H82.7667V35.2915C82.7667 34.8715 82.5417 34.6475 82.1479 34.6475C81.8667 34.6475 81.5854 34.7315 81.3323 34.8715V37.6995H80.6292V34.0875H81.1635L81.2198 34.4235C81.5292 34.1715 81.9229 34.0315 82.3167 34.0035C82.6823 33.9755 83.0479 34.1435 83.2448 34.4515C83.5542 34.1715 83.9479 34.0035 84.3417 34.0035C85.1573 34.0035 85.5792 34.4235 85.5792 35.3195V37.6715H84.9042Z" fill="white"/>
<path id="Vector_28" d="M88.3916 37.6712L88.3073 37.3632C88.026 37.6152 87.6323 37.7552 87.2385 37.7552C86.6197 37.8112 86.0854 37.3352 86.0573 36.7472C86.0573 36.7192 86.0573 36.6632 86.0573 36.6352C86.0573 36.2992 86.1979 35.9912 86.451 35.7952C86.7323 35.5992 87.0698 35.5152 87.4354 35.5152C87.6885 35.5152 87.9698 35.5152 88.2229 35.5432V35.2352C88.2229 35.0672 88.1666 34.9272 88.0823 34.8152C87.8854 34.6752 87.6604 34.6192 87.4354 34.6472C87.0979 34.6472 86.7604 34.7032 86.4229 34.7592L86.3104 34.1712C86.7041 34.0592 87.0979 34.0032 87.4916 34.0032C87.8854 33.9752 88.251 34.0592 88.5885 34.2832C88.8416 34.5072 88.9823 34.8712 88.9541 35.2072V37.6992L88.3916 37.6712ZM88.1948 36.0472C88.026 36.0472 87.7729 36.0192 87.5479 36.0192C87.0135 36.0192 86.7604 36.2152 86.7604 36.6072C86.7604 36.9152 86.9854 37.1672 87.2948 37.1672C87.3229 37.1672 87.351 37.1672 87.4073 37.1672C87.6885 37.1672 87.9698 37.0832 88.1948 36.9152V36.0472Z" fill="white"/>
<path id="Vector_29" d="M91.4854 37.5034C91.2042 37.6434 90.9229 37.7274 90.6136 37.7274C90.0229 37.7274 89.6854 37.3914 89.6854 36.7474V34.6474H89.1229V34.1154L89.6854 34.0874L89.7417 33.0234H90.3886V34.0594H91.4011V34.6474H90.3886V36.6354C90.3886 36.8874 90.4448 37.0554 90.6979 37.0554C90.8948 37.0554 91.0636 36.9994 91.2323 36.9154L91.4854 37.5034Z" fill="white"/>
<path id="Vector_30" d="M92.2166 32.6035C92.4416 32.6035 92.6104 32.7715 92.6104 32.9955C92.6104 33.2195 92.4416 33.3875 92.2166 33.3875C91.9916 33.3875 91.8229 33.2195 91.8229 32.9955C91.8229 32.7995 91.9916 32.6315 92.2166 32.6035ZM91.851 37.6714V34.0595H92.5541V37.6714H91.851Z" fill="white"/>
<path id="Vector_31" d="M94.6636 37.756C94.2417 37.784 93.8198 37.644 93.5104 37.364C92.8635 36.468 92.8635 35.292 93.5104 34.396C93.8198 34.116 94.2417 33.976 94.6636 34.004C95.0854 33.976 95.5073 34.116 95.8167 34.396C96.4636 35.292 96.4636 36.468 95.8167 37.364C95.5073 37.616 95.0854 37.784 94.6636 37.756ZM95.5917 35.852C95.6198 35.488 95.5354 35.152 95.3386 34.844C94.9729 34.508 94.4104 34.508 94.0448 34.844C93.8479 35.152 93.7636 35.488 93.7917 35.852C93.7636 36.216 93.8479 36.552 94.0448 36.86C94.2136 37.028 94.4386 37.14 94.6917 37.112C94.9448 37.112 95.1698 37.028 95.3386 36.86C95.5073 36.58 95.6198 36.216 95.5917 35.852Z" fill="white"/>
<path id="Vector_32" d="M98.9667 37.6714V35.2914C98.9667 34.8434 98.7417 34.6194 98.348 34.6194C98.0386 34.6194 97.7573 34.7034 97.4761 34.8434V37.6714H96.7729V34.0594H97.3073L97.3636 34.3954C97.673 34.1434 98.0667 34.0034 98.4605 33.9754C99.0792 33.9194 99.6417 34.3674 99.698 34.9834C99.698 35.0674 99.698 35.1514 99.698 35.2354V37.6714H98.9667Z" fill="white"/>
<path id="Vector_33" d="M101.864 36.9714C102.257 37.0274 102.651 37.0834 103.045 37.0834C103.439 37.1114 103.804 37.0274 104.114 36.8034C104.254 36.6634 104.339 36.4954 104.339 36.2994C104.339 35.8234 104.029 35.6554 103.157 35.3755C102.286 35.1235 101.723 34.7595 101.723 33.9195C101.723 33.5275 101.892 33.1635 102.201 32.9115C102.567 32.6595 103.017 32.5475 103.439 32.5755C103.917 32.5755 104.367 32.6315 104.845 32.7435L104.761 33.3595C104.367 33.3035 103.973 33.2475 103.607 33.2475C103.298 33.2195 103.017 33.2755 102.736 33.4155C102.595 33.5275 102.482 33.6955 102.511 33.8915C102.511 34.3955 102.904 34.5635 103.748 34.8155C104.592 35.0675 105.126 35.4035 105.126 36.2994C105.154 36.7194 104.957 37.1394 104.62 37.4194C104.198 37.6994 103.72 37.8114 103.242 37.7834C102.764 37.7834 102.286 37.7274 101.807 37.6434L101.864 36.9714Z" fill="white"/>
<path id="Vector_34" d="M108.276 37.4475C107.882 37.6435 107.461 37.7275 107.011 37.7275C105.942 37.7275 105.379 37.0555 105.379 35.8796C105.379 34.8996 105.801 33.9756 106.926 33.9756C107.798 33.9756 108.304 34.5916 108.304 35.5716C108.304 35.7676 108.276 35.9356 108.248 36.1316H106.082C106.082 36.4116 106.167 36.6636 106.336 36.8595C106.532 37.0275 106.786 37.1395 107.067 37.1115C107.432 37.1115 107.77 37.0275 108.107 36.8875L108.276 37.4475ZM107.657 35.5436C107.657 35.0116 107.489 34.5636 106.926 34.5636C106.364 34.5636 106.139 35.0396 106.139 35.5436H107.657Z" fill="white"/>
<path id="Vector_35" d="M111.37 37.4477C110.976 37.6437 110.554 37.7277 110.132 37.7277C109.176 37.7277 108.585 37.1957 108.585 35.8517C108.585 34.3117 109.373 33.9478 110.245 33.9478C110.582 33.9478 110.92 33.9758 111.257 34.0598L111.201 34.6477C110.92 34.5917 110.667 34.5917 110.385 34.5917C109.682 34.5917 109.317 34.8717 109.317 35.8517C109.317 36.7197 109.626 37.1117 110.217 37.1117C110.554 37.1117 110.892 37.0277 111.201 36.8877L111.37 37.4477Z" fill="white"/>
<path id="Vector_36" d="M114.098 37.6715L114.042 37.3635C113.732 37.6155 113.339 37.7555 112.945 37.7555C112.326 37.8115 111.764 37.3635 111.707 36.7475C111.707 36.6635 111.707 36.5795 111.707 36.4955V34.0596H112.411V36.4115C112.411 36.8875 112.636 37.0835 113.057 37.0835C113.339 37.0835 113.648 36.9995 113.901 36.8875V34.0596H114.604V37.6715H114.098Z" fill="white"/>
<path id="Vector_37" d="M115.336 37.6717V34.0598H115.87L115.954 34.4798H115.982C116.207 34.1158 116.629 33.9198 117.051 33.9758C117.164 33.9758 117.248 33.9758 117.361 33.9758L117.304 34.6198C117.164 34.5918 117.023 34.5918 116.882 34.5918C116.573 34.5638 116.264 34.6758 116.011 34.8717V37.6437L115.336 37.6717Z" fill="white"/>
<path id="Vector_38" d="M118.007 32.6035C118.232 32.6035 118.401 32.7715 118.401 32.9955C118.401 33.2195 118.232 33.3875 118.007 33.3875C117.782 33.3875 117.614 33.2195 117.614 32.9955C117.614 32.7995 117.782 32.6315 118.007 32.6035ZM117.67 37.6714V34.0595H118.373V37.6714H117.67Z" fill="white"/>
<path id="Vector_39" d="M120.989 37.5034C120.707 37.6434 120.426 37.7274 120.117 37.7274C119.526 37.7274 119.189 37.3914 119.189 36.7474V34.6474H118.654V34.1154L119.217 34.0874L119.273 33.0234H119.92V34.0594H120.932V34.6474H119.92V36.6354C119.92 36.8874 119.976 37.0554 120.229 37.0554C120.426 37.0554 120.595 36.9994 120.764 36.9154L120.989 37.5034Z" fill="white"/>
<path id="Vector_40" d="M121.973 39.0995C122.198 38.5395 122.367 38.0635 122.479 37.6715H122.086C121.72 36.6635 121.354 35.3756 121.017 34.0596H121.776C122.029 35.1236 122.282 36.1315 122.592 37.0835H122.648C122.929 36.2155 123.239 35.0676 123.492 34.0596H124.223C123.801 35.7675 123.295 37.4475 122.676 39.0995H121.973Z" fill="white"/>
<path id="Vector_41" d="M71.7977 45.9037C71.7696 44.5597 71.6852 43.1877 71.629 41.8438H71.6009L70.4477 45.0357H69.6321L68.479 41.8438H68.4508C68.3946 43.1597 68.3383 44.5597 68.2821 45.9037H67.5227C67.579 44.2237 67.6633 42.5717 67.7477 40.8638H68.8446L69.9977 44.1957H70.0259L71.179 40.8638H72.2759C72.3602 42.5437 72.4446 44.2237 72.5009 45.9037H71.7977Z" fill="white"/>
<path id="Vector_42" d="M75.3416 45.9036L75.2572 45.5956C74.976 45.8476 74.5822 45.9876 74.1885 45.9876C73.5697 46.0436 73.0353 45.5676 73.0072 44.9796C73.0072 44.9516 73.0072 44.8956 73.0072 44.8676C73.0072 44.5316 73.1478 44.2236 73.401 44.0276C73.6822 43.8316 74.0197 43.7476 74.3853 43.7476C74.6385 43.7476 74.9197 43.7476 75.1728 43.7756V43.4676C75.1728 43.2996 75.1166 43.1597 75.0322 43.0477C74.8353 42.9077 74.6103 42.8517 74.3853 42.8797C74.0478 42.8797 73.7103 42.9357 73.3728 42.9917L73.2603 42.4037C73.6541 42.2917 74.0478 42.2357 74.4416 42.2357C74.8353 42.2077 75.201 42.2917 75.5385 42.5157C75.7916 42.7397 75.9322 43.1037 75.9041 43.4396V45.9316L75.3416 45.9036ZM75.1728 44.2796C75.0041 44.2796 74.751 44.2796 74.526 44.2796C73.9916 44.2796 73.7385 44.4756 73.7385 44.8676C73.7385 45.1756 73.9635 45.4276 74.2728 45.4276C74.301 45.4276 74.3291 45.4276 74.3572 45.4276C74.6385 45.4276 74.9197 45.3436 75.1447 45.1756V44.2796H75.1728Z" fill="white"/>
<path id="Vector_43" d="M78.7729 45.9038V43.5238C78.7729 43.0758 78.5479 42.8518 78.1541 42.8518C77.8447 42.8518 77.5635 42.9358 77.2822 43.0758V45.9038H76.5791V42.2919H77.1135L77.1697 42.6278C77.4791 42.3758 77.8729 42.2359 78.2666 42.2079C78.8854 42.1519 79.4479 42.5998 79.5041 43.2158C79.5041 43.2998 79.5041 43.3838 79.5041 43.4678V45.9038H78.7729Z" fill="white"/>
<path id="Vector_44" d="M82.2604 45.9036L82.176 45.5956C81.8948 45.8476 81.501 45.9876 81.1073 45.9876C80.4885 46.0436 79.9542 45.5676 79.926 44.9796C79.926 44.9516 79.926 44.8956 79.926 44.8676C79.926 44.5316 80.0666 44.2236 80.3198 44.0276C80.601 43.8316 80.9385 43.7476 81.3042 43.7476C81.5573 43.7476 81.8385 43.7476 82.0917 43.7756V43.4676C82.0917 43.2996 82.0354 43.1597 81.951 43.0477C81.7542 42.9077 81.5292 42.8517 81.3042 42.8797C80.9667 42.8797 80.6292 42.9357 80.2917 42.9917L80.1792 42.4037C80.5729 42.2917 80.9667 42.2357 81.3604 42.2357C81.7542 42.2077 82.1198 42.2917 82.4573 42.5157C82.7104 42.7397 82.851 43.1037 82.8229 43.4396V45.9316L82.2604 45.9036ZM82.0635 44.2796C81.8948 44.2796 81.6417 44.2796 81.4167 44.2796C80.8823 44.2796 80.6292 44.4756 80.6292 44.8676C80.6292 45.1756 80.8542 45.4276 81.1635 45.4276C81.1917 45.4276 81.2198 45.4276 81.2479 45.4276C81.5292 45.4276 81.8104 45.3436 82.0354 45.1756V44.2796H82.0635Z" fill="white"/>
<path id="Vector_45" d="M85.551 45.7073C85.2978 45.8753 84.9885 45.9873 84.6791 45.9873C83.6385 45.9873 83.2728 45.3153 83.2728 44.1393C83.2728 42.7953 83.6947 42.2354 84.7072 42.2354C85.2416 42.2354 85.7478 42.3193 86.2541 42.4873V46.2393C86.2822 46.5753 86.1416 46.8833 85.9166 47.1073C85.6072 47.3313 85.1853 47.4433 84.7916 47.4153C84.3978 47.4153 84.0041 47.3593 83.6385 47.3033L83.7228 46.6873C84.0322 46.7433 84.3697 46.7713 84.7072 46.7713C84.9603 46.7993 85.1853 46.7433 85.3822 46.6033C85.4947 46.4913 85.5228 46.3233 85.5228 46.1833V45.7353L85.551 45.7073ZM85.551 42.9073C85.2978 42.8513 85.0447 42.8513 84.7916 42.8513C84.1728 42.8513 84.0041 43.2713 84.0041 44.1393C84.0041 45.0073 84.1728 45.3993 84.7635 45.3993C85.0447 45.3993 85.2978 45.3433 85.551 45.2313V42.9073Z" fill="white"/>
<path id="Vector_46" d="M89.5729 45.6795C89.1792 45.8755 88.7573 45.9595 88.3073 45.9595C87.2385 45.9595 86.676 45.2875 86.676 44.1115C86.676 43.1315 87.0979 42.2075 88.2229 42.2075C89.0948 42.2075 89.601 42.8235 89.601 43.8035C89.601 43.9995 89.5729 44.1675 89.5448 44.3635H87.4073C87.4073 44.6435 87.4917 44.8955 87.6604 45.0915C87.8573 45.2595 88.1104 45.3715 88.3917 45.3435C88.7573 45.3435 89.0948 45.2595 89.4323 45.1195L89.5729 45.6795ZM88.926 43.8035C88.926 43.2715 88.7573 42.8235 88.1948 42.8235C87.6323 42.8235 87.4073 43.2995 87.4073 43.8035H88.926Z" fill="white"/>
<path id="Vector_47" d="M94.3542 45.9034V43.5234C94.3542 43.1034 94.1292 42.8794 93.7355 42.8794C93.4261 42.8794 93.1449 42.9634 92.8917 43.1314C92.9199 43.2714 92.9199 43.4114 92.9199 43.5514V45.9034H92.2167V43.4954C92.2167 43.0754 91.9917 42.8514 91.598 42.8514C91.3167 42.8514 91.0355 42.9354 90.7824 43.0754V45.9034H90.0792V42.3194H90.6136L90.6699 42.6554C90.9792 42.4034 91.373 42.2634 91.7667 42.2354C92.1324 42.2074 92.498 42.3754 92.6949 42.6834C93.0042 42.4034 93.398 42.2354 93.8199 42.2354C94.6355 42.2354 95.0574 42.6554 95.0574 43.5514V45.9034H94.3542Z" fill="white"/>
<path id="Vector_48" d="M98.3479 45.6795C97.9542 45.8755 97.5323 45.9595 97.0823 45.9595C96.0135 45.9595 95.451 45.2875 95.451 44.1115C95.451 43.1315 95.8729 42.2075 96.9979 42.2075C97.8698 42.2075 98.3761 42.8235 98.3761 43.8035C98.3761 43.9995 98.3479 44.1675 98.3198 44.3635H96.1542C96.1542 44.6435 96.2386 44.8955 96.4073 45.0915C96.6042 45.2595 96.8573 45.3715 97.1386 45.3435C97.5042 45.3435 97.8417 45.2595 98.1792 45.1195L98.3479 45.6795ZM97.7292 43.8035C97.7292 43.2715 97.5604 42.8235 96.9979 42.8235C96.4354 42.8235 96.2104 43.2995 96.1823 43.8035H97.7292Z" fill="white"/>
<path id="Vector_49" d="M101.076 45.9038V43.5238C101.076 43.0758 100.851 42.8518 100.457 42.8518C100.148 42.8518 99.8667 42.9358 99.5855 43.0758V45.9038H98.8823V42.2919H99.4167L99.473 42.6278C99.7823 42.3758 100.176 42.2359 100.57 42.2079C101.189 42.1519 101.751 42.5998 101.807 43.2158C101.807 43.2998 101.807 43.3838 101.807 43.4678V45.9038H101.076Z" fill="white"/>
<path id="Vector_50" d="M104.339 45.7353C104.057 45.8753 103.776 45.9593 103.467 45.9593C102.876 45.9593 102.539 45.6233 102.539 44.9793V42.8794H102.004V42.3474L102.567 42.3194L102.623 41.2554H103.27V42.2914H104.282V42.8794H103.27V44.8673C103.27 45.1193 103.326 45.2873 103.579 45.2873C103.776 45.2873 103.945 45.2313 104.114 45.1473L104.339 45.7353Z" fill="white"/>
<path id="Vector_51" d="M103.214 67.5754H31.185C30.7632 67.5754 30.4257 67.2394 30.4257 66.8194C30.4257 66.3994 30.7632 66.0634 31.185 66.0634H103.214C119.386 66.0634 132.52 52.9876 132.52 36.8878C132.52 20.788 119.414 7.71217 103.214 7.71217H46.6257C46.2039 7.71217 45.8664 7.37618 45.8664 6.95618C45.8664 6.53619 46.2039 6.2002 46.6257 6.2002H103.214C120.257 6.2002 134.067 19.948 134.067 36.9158C134.067 53.8836 120.229 67.5754 103.214 67.5754Z" fill="white"/>
<path id="Vector_52" d="M32.9851 29.5795C33.182 25.9675 36.2476 23.2236 39.8758 23.3916C43.2227 23.5596 45.9227 26.2195 46.0914 29.5795H32.9851ZM38.4976 45.0633C37.5695 42.3473 35.3757 40.9193 33.5195 39.7153C31.4663 38.3714 30.5945 37.6994 30.5663 36.4114C30.5663 34.6754 31.9445 33.2474 33.7164 33.2194H45.1352L38.4976 45.0633ZM29.6663 55.3671C30.1726 55.4511 30.6788 55.5071 31.2132 55.5071C31.7195 55.5071 32.2538 55.4511 32.7601 55.3671L31.2132 58.1111L29.6663 55.3671ZM27.7819 33.1914C27.2757 34.1434 26.9944 35.2074 26.9944 36.2994C26.9944 36.3274 26.9944 36.3834 26.9944 36.4114C27.0507 39.7993 29.582 41.4513 31.607 42.7673C34.0257 44.3353 35.4039 45.3713 35.4039 47.9192C35.4039 50.4672 33.3789 51.9232 30.9038 51.9232C29.3007 51.9232 27.3038 51.0552 26.4882 49.6552L25.7851 48.4232L17.2069 33.1634L27.7819 33.1914ZM23.0007 23.3636C26.4882 23.3916 29.3288 26.1075 29.5257 29.5795H16.4756C16.6725 26.1355 19.5132 23.4196 23.0007 23.3636ZM39.5383 19.8916C36.1914 19.8916 33.0695 21.5716 31.2695 24.3995C29.4695 21.5996 26.3476 19.8916 23.0007 19.8916C17.4038 19.9196 12.8756 24.4275 12.9037 29.9995V31.0355C12.8756 32.1554 13.185 33.2754 13.7756 34.1994L31.1851 64.103C31.1851 64.103 47.7227 35.6834 48.5383 34.1994C49.3539 32.7154 49.4946 32.0434 49.4946 31.0355V29.9995C49.5227 24.5115 45.0508 19.9756 39.5383 19.8916Z" fill="white"/>
<path id="Vector_53" d="M24.9131 5.38814C23.8725 5.38814 22.8319 5.69613 21.96 6.25613V0.012207H19.485V16.952H20.9475L21.3412 16.028C22.3538 16.812 23.6194 17.232 24.9131 17.204C28.1475 17.204 29.3288 14.992 29.3288 11.2961C29.3569 7.60011 28.1475 5.38814 24.9131 5.38814ZM24.3506 7.57211C26.5163 7.57211 26.8538 9.25209 26.8538 11.3521C26.8538 13.424 26.5163 15.132 24.3506 15.132C23.5069 15.132 22.6913 14.908 21.96 14.46V8.2161C22.6913 7.76811 23.5069 7.54411 24.3506 7.57211ZM32.4788 8.91609C32.4788 7.9081 33.2944 7.51611 34.6163 7.51611C35.7695 7.51611 36.9226 7.71211 37.9913 8.1601V5.97613C36.8945 5.55614 35.7413 5.36014 34.5601 5.41614C31.3257 5.41614 30.0882 7.06812 30.0882 9.00009C30.0882 10.9321 30.9038 11.9961 34.2507 12.304C35.7413 12.444 36.0788 12.864 36.0788 13.704C36.0788 14.684 35.2069 15.104 33.4632 15.104C32.3382 15.076 31.2132 14.88 30.1725 14.46V16.616C31.3538 17.036 32.5913 17.232 33.8288 17.232C37.3726 17.232 38.5257 15.552 38.5257 13.592C38.5257 11.4921 37.6538 10.4841 34.3632 10.1761C32.8726 10.0361 32.4788 9.70008 32.4788 8.91609ZM42.407 17.12C42.5757 17.12 42.7445 17.092 42.8851 17.064V15.02C42.182 15.02 41.957 14.796 41.957 14.152V5.66813H39.482V14.18C39.482 16.112 40.4101 17.12 42.407 17.12ZM39.1163 2.30818C39.0601 3.20417 39.7632 3.96016 40.6351 3.98816C41.5351 4.04416 42.2945 3.34416 42.3226 2.47618C42.3226 2.42018 42.3226 2.36418 42.3226 2.30818C42.3789 1.41219 41.6757 0.6562 40.8039 0.6282C39.9038 0.572201 39.1445 1.27219 39.1163 2.14018C39.1163 2.19618 39.1163 2.25218 39.1163 2.30818Z" fill="white"/>
<path id="Vector_54" d="M31.1851 67.5753C14.1412 67.5753 0.331787 53.8275 0.331787 36.8597C0.331787 26.0518 6.04119 16.028 15.3506 10.484C15.6881 10.232 16.1662 10.26 16.4475 10.596C16.7006 10.932 16.6725 11.408 16.335 11.688C16.2788 11.744 16.2225 11.772 16.1662 11.8C2.27242 20.0599 -2.28385 37.9797 6.01307 51.8115C14.31 65.6433 32.3101 70.1792 46.2039 61.9194C55.0633 56.6554 60.4915 47.1356 60.4915 36.8877C60.5477 26.6118 55.0915 17.0639 46.2039 11.828C45.8102 11.66 45.6414 11.212 45.8102 10.82C45.9789 10.428 46.4289 10.26 46.8227 10.428C46.8789 10.456 46.9352 10.484 46.9914 10.54C61.6165 19.2479 66.3697 38.1197 57.5946 52.6795C52.0539 61.9194 42.0133 67.5753 31.1851 67.5753Z" fill="white"/>
</g>
</svg>
